<mxfile host="app.diagrams.net" modified="2024-01-06T20:44:16.750Z" agent="Mozilla/5.0 (Windows NT 10.0; Win64; x64) AppleWebKit/537.36 (KHTML, like Gecko) Chrome/120.0.0.0 Safari/537.36" etag="ZPVWmndC-S98sMmyrcDR" version="22.1.17" type="device">
  <diagram name="Page-1" id="1VNJWvVlLLgwSOe-0MmB">
    <mxGraphModel dx="3125" dy="1645" grid="0" gridSize="10" guides="1" tooltips="1" connect="1" arrows="1" fold="1" page="1" pageScale="1" pageWidth="1100" pageHeight="1700" math="0" shadow="0">
      <root>
        <mxCell id="0" />
        <mxCell id="1" parent="0" />
        <mxCell id="l3Exs2rkQDU-vOPZV9hI-2" value="" style="ellipse;html=1;shape=startState;fillColor=#000000;strokeColor=#ff0000;" vertex="1" parent="1">
          <mxGeometry x="491" y="23" width="68" height="66" as="geometry" />
        </mxCell>
        <mxCell id="l3Exs2rkQDU-vOPZV9hI-3" value="" style="edgeStyle=orthogonalEdgeStyle;html=1;verticalAlign=bottom;endArrow=open;endSize=8;strokeColor=#ff0000;rounded=0;" edge="1" source="l3Exs2rkQDU-vOPZV9hI-2" parent="1">
          <mxGeometry relative="1" as="geometry">
            <mxPoint x="525" y="180" as="targetPoint" />
            <Array as="points">
              <mxPoint x="525" y="135" />
              <mxPoint x="526" y="180" />
            </Array>
          </mxGeometry>
        </mxCell>
        <mxCell id="l3Exs2rkQDU-vOPZV9hI-7" style="edgeStyle=orthogonalEdgeStyle;rounded=0;orthogonalLoop=1;jettySize=auto;html=1;entryX=0.5;entryY=0;entryDx=0;entryDy=0;" edge="1" parent="1" source="l3Exs2rkQDU-vOPZV9hI-4" target="l3Exs2rkQDU-vOPZV9hI-5">
          <mxGeometry relative="1" as="geometry" />
        </mxCell>
        <mxCell id="l3Exs2rkQDU-vOPZV9hI-4" value="&lt;font style=&quot;font-size: 19px;&quot;&gt;Trying to access a resource&lt;/font&gt;" style="rounded=1;whiteSpace=wrap;html=1;" vertex="1" parent="1">
          <mxGeometry x="447.5" y="190" width="155" height="110" as="geometry" />
        </mxCell>
        <mxCell id="l3Exs2rkQDU-vOPZV9hI-15" style="edgeStyle=orthogonalEdgeStyle;rounded=0;orthogonalLoop=1;jettySize=auto;html=1;" edge="1" parent="1" source="l3Exs2rkQDU-vOPZV9hI-5">
          <mxGeometry relative="1" as="geometry">
            <mxPoint x="280" y="450" as="targetPoint" />
            <Array as="points">
              <mxPoint x="280" y="400" />
              <mxPoint x="280" y="440" />
            </Array>
          </mxGeometry>
        </mxCell>
        <mxCell id="l3Exs2rkQDU-vOPZV9hI-17" style="edgeStyle=orthogonalEdgeStyle;rounded=0;orthogonalLoop=1;jettySize=auto;html=1;" edge="1" parent="1" source="l3Exs2rkQDU-vOPZV9hI-5">
          <mxGeometry relative="1" as="geometry">
            <mxPoint x="760" y="450" as="targetPoint" />
            <Array as="points">
              <mxPoint x="760" y="400" />
              <mxPoint x="760" y="450" />
            </Array>
          </mxGeometry>
        </mxCell>
        <mxCell id="l3Exs2rkQDU-vOPZV9hI-5" value="" style="rhombus;whiteSpace=wrap;html=1;" vertex="1" parent="1">
          <mxGeometry x="485" y="360" width="80" height="80" as="geometry" />
        </mxCell>
        <mxCell id="l3Exs2rkQDU-vOPZV9hI-18" value="&lt;font style=&quot;font-size: 17px;&quot;&gt;having an account in AD&lt;/font&gt;" style="text;html=1;align=center;verticalAlign=middle;resizable=0;points=[];autosize=1;strokeColor=none;fillColor=none;" vertex="1" parent="1">
          <mxGeometry x="285" y="368" width="210" height="30" as="geometry" />
        </mxCell>
        <mxCell id="l3Exs2rkQDU-vOPZV9hI-19" value="&lt;font style=&quot;font-size: 17px;&quot;&gt;without an account in AD&lt;/font&gt;" style="text;html=1;align=center;verticalAlign=middle;resizable=0;points=[];autosize=1;strokeColor=none;fillColor=none;" vertex="1" parent="1">
          <mxGeometry x="555" y="368" width="210" height="30" as="geometry" />
        </mxCell>
        <mxCell id="l3Exs2rkQDU-vOPZV9hI-20" value="" style="ellipse;html=1;shape=endState;fillColor=#000000;strokeColor=#ff0000;" vertex="1" parent="1">
          <mxGeometry x="730" y="460" width="60" height="60" as="geometry" />
        </mxCell>
        <mxCell id="l3Exs2rkQDU-vOPZV9hI-23" style="edgeStyle=orthogonalEdgeStyle;rounded=0;orthogonalLoop=1;jettySize=auto;html=1;entryX=0.5;entryY=0;entryDx=0;entryDy=0;" edge="1" parent="1" source="l3Exs2rkQDU-vOPZV9hI-21" target="l3Exs2rkQDU-vOPZV9hI-22">
          <mxGeometry relative="1" as="geometry" />
        </mxCell>
        <mxCell id="l3Exs2rkQDU-vOPZV9hI-21" value="&lt;font style=&quot;font-size: 19px;&quot;&gt;Login&amp;nbsp;&lt;/font&gt;" style="rounded=1;whiteSpace=wrap;html=1;" vertex="1" parent="1">
          <mxGeometry x="170" y="460" width="240" height="60" as="geometry" />
        </mxCell>
        <mxCell id="l3Exs2rkQDU-vOPZV9hI-25" style="edgeStyle=orthogonalEdgeStyle;rounded=0;orthogonalLoop=1;jettySize=auto;html=1;" edge="1" parent="1" source="l3Exs2rkQDU-vOPZV9hI-22">
          <mxGeometry relative="1" as="geometry">
            <mxPoint x="190" y="640" as="targetPoint" />
            <Array as="points">
              <mxPoint x="190" y="595" />
            </Array>
          </mxGeometry>
        </mxCell>
        <mxCell id="l3Exs2rkQDU-vOPZV9hI-27" style="edgeStyle=orthogonalEdgeStyle;rounded=0;orthogonalLoop=1;jettySize=auto;html=1;entryX=0.5;entryY=0;entryDx=0;entryDy=0;" edge="1" parent="1" source="l3Exs2rkQDU-vOPZV9hI-22" target="l3Exs2rkQDU-vOPZV9hI-33">
          <mxGeometry relative="1" as="geometry">
            <mxPoint x="410" y="730" as="targetPoint" />
            <Array as="points">
              <mxPoint x="400" y="595" />
            </Array>
          </mxGeometry>
        </mxCell>
        <mxCell id="l3Exs2rkQDU-vOPZV9hI-22" value="" style="rhombus;whiteSpace=wrap;html=1;" vertex="1" parent="1">
          <mxGeometry x="255" y="560" width="70" height="70" as="geometry" />
        </mxCell>
        <mxCell id="l3Exs2rkQDU-vOPZV9hI-28" value="&lt;font style=&quot;font-size: 17px;&quot;&gt;not OK&lt;/font&gt;" style="text;html=1;align=center;verticalAlign=middle;resizable=0;points=[];autosize=1;strokeColor=none;fillColor=none;" vertex="1" parent="1">
          <mxGeometry x="175" y="560" width="80" height="30" as="geometry" />
        </mxCell>
        <mxCell id="l3Exs2rkQDU-vOPZV9hI-29" value="&lt;font style=&quot;font-size: 17px;&quot;&gt;OK&lt;/font&gt;" style="text;html=1;align=center;verticalAlign=middle;resizable=0;points=[];autosize=1;strokeColor=none;fillColor=none;" vertex="1" parent="1">
          <mxGeometry x="345" y="558" width="50" height="30" as="geometry" />
        </mxCell>
        <mxCell id="l3Exs2rkQDU-vOPZV9hI-30" value="" style="ellipse;whiteSpace=wrap;html=1;aspect=fixed;" vertex="1" parent="1">
          <mxGeometry x="165" y="641" width="50" height="50" as="geometry" />
        </mxCell>
        <mxCell id="l3Exs2rkQDU-vOPZV9hI-31" value="" style="endArrow=none;html=1;rounded=0;exitX=0;exitY=1;exitDx=0;exitDy=0;entryX=1;entryY=0;entryDx=0;entryDy=0;" edge="1" parent="1" source="l3Exs2rkQDU-vOPZV9hI-30" target="l3Exs2rkQDU-vOPZV9hI-30">
          <mxGeometry width="50" height="50" relative="1" as="geometry">
            <mxPoint x="165" y="691" as="sourcePoint" />
            <mxPoint x="205" y="651" as="targetPoint" />
          </mxGeometry>
        </mxCell>
        <mxCell id="l3Exs2rkQDU-vOPZV9hI-32" value="" style="endArrow=none;html=1;rounded=0;" edge="1" parent="1">
          <mxGeometry width="50" height="50" relative="1" as="geometry">
            <mxPoint x="210" y="681" as="sourcePoint" />
            <mxPoint x="170" y="651" as="targetPoint" />
          </mxGeometry>
        </mxCell>
        <mxCell id="l3Exs2rkQDU-vOPZV9hI-35" style="edgeStyle=orthogonalEdgeStyle;rounded=0;orthogonalLoop=1;jettySize=auto;html=1;entryX=0.5;entryY=0;entryDx=0;entryDy=0;" edge="1" parent="1" target="l3Exs2rkQDU-vOPZV9hI-70">
          <mxGeometry relative="1" as="geometry">
            <mxPoint x="450.00444444444435" y="780" as="sourcePoint" />
            <mxPoint x="700" y="920" as="targetPoint" />
            <Array as="points">
              <mxPoint x="700" y="780" />
            </Array>
          </mxGeometry>
        </mxCell>
        <mxCell id="l3Exs2rkQDU-vOPZV9hI-52" style="edgeStyle=orthogonalEdgeStyle;rounded=0;orthogonalLoop=1;jettySize=auto;html=1;" edge="1" parent="1" source="l3Exs2rkQDU-vOPZV9hI-33">
          <mxGeometry relative="1" as="geometry">
            <mxPoint x="170" y="920" as="targetPoint" />
          </mxGeometry>
        </mxCell>
        <mxCell id="l3Exs2rkQDU-vOPZV9hI-55" style="edgeStyle=orthogonalEdgeStyle;rounded=0;orthogonalLoop=1;jettySize=auto;html=1;exitX=0.5;exitY=1;exitDx=0;exitDy=0;" edge="1" parent="1" source="l3Exs2rkQDU-vOPZV9hI-33">
          <mxGeometry relative="1" as="geometry">
            <mxPoint x="400" y="920" as="targetPoint" />
          </mxGeometry>
        </mxCell>
        <mxCell id="l3Exs2rkQDU-vOPZV9hI-33" value="&lt;font style=&quot;font-size: 19px;&quot;&gt;2FA&lt;br&gt;method&lt;br&gt;&lt;/font&gt;" style="rhombus;whiteSpace=wrap;html=1;" vertex="1" parent="1">
          <mxGeometry x="350" y="730" width="100" height="100" as="geometry" />
        </mxCell>
        <mxCell id="l3Exs2rkQDU-vOPZV9hI-49" value="&lt;font style=&quot;font-size: 17px;&quot;&gt;entering the TOTP code &lt;br&gt;from the mobile app&lt;/font&gt;" style="text;html=1;align=center;verticalAlign=middle;resizable=0;points=[];autosize=1;strokeColor=none;fillColor=none;" vertex="1" parent="1">
          <mxGeometry x="170" y="730" width="200" height="50" as="geometry" />
        </mxCell>
        <mxCell id="l3Exs2rkQDU-vOPZV9hI-53" value="&lt;font style=&quot;font-size: 17px;&quot;&gt;token insertion in usb &lt;br&gt;port&lt;/font&gt;" style="text;html=1;align=center;verticalAlign=middle;resizable=0;points=[];autosize=1;strokeColor=none;fillColor=none;" vertex="1" parent="1">
          <mxGeometry x="495" y="730" width="180" height="50" as="geometry" />
        </mxCell>
        <mxCell id="l3Exs2rkQDU-vOPZV9hI-56" value="&lt;font style=&quot;font-size: 17px;&quot;&gt;push notification &lt;br&gt;on mobile&amp;nbsp;&lt;/font&gt;" style="text;html=1;align=center;verticalAlign=middle;resizable=0;points=[];autosize=1;strokeColor=none;fillColor=none;" vertex="1" parent="1">
          <mxGeometry x="395" y="840" width="150" height="50" as="geometry" />
        </mxCell>
        <mxCell id="l3Exs2rkQDU-vOPZV9hI-59" style="edgeStyle=orthogonalEdgeStyle;rounded=0;orthogonalLoop=1;jettySize=auto;html=1;" edge="1" parent="1" source="l3Exs2rkQDU-vOPZV9hI-57">
          <mxGeometry relative="1" as="geometry">
            <mxPoint x="70" y="1050" as="targetPoint" />
          </mxGeometry>
        </mxCell>
        <mxCell id="l3Exs2rkQDU-vOPZV9hI-61" style="edgeStyle=orthogonalEdgeStyle;rounded=0;orthogonalLoop=1;jettySize=auto;html=1;" edge="1" parent="1" source="l3Exs2rkQDU-vOPZV9hI-57" target="l3Exs2rkQDU-vOPZV9hI-64">
          <mxGeometry relative="1" as="geometry">
            <mxPoint x="270" y="1170" as="targetPoint" />
            <Array as="points">
              <mxPoint x="270" y="970" />
            </Array>
          </mxGeometry>
        </mxCell>
        <mxCell id="l3Exs2rkQDU-vOPZV9hI-57" value="" style="rhombus;whiteSpace=wrap;html=1;" vertex="1" parent="1">
          <mxGeometry x="130" y="930" width="80" height="80" as="geometry" />
        </mxCell>
        <mxCell id="l3Exs2rkQDU-vOPZV9hI-62" value="&lt;font style=&quot;font-size: 17px;&quot;&gt;Incorrect&lt;/font&gt;" style="text;html=1;align=center;verticalAlign=middle;resizable=0;points=[];autosize=1;strokeColor=none;fillColor=none;" vertex="1" parent="1">
          <mxGeometry x="55" y="940" width="90" height="30" as="geometry" />
        </mxCell>
        <mxCell id="l3Exs2rkQDU-vOPZV9hI-64" value="" style="line;strokeWidth=6;fillColor=none;align=left;verticalAlign=middle;spacingTop=-1;spacingLeft=3;spacingRight=3;rotatable=0;labelPosition=right;points=[];portConstraint=eastwest;strokeColor=inherit;" vertex="1" parent="1">
          <mxGeometry x="70" y="1370" width="810" height="30" as="geometry" />
        </mxCell>
        <mxCell id="l3Exs2rkQDU-vOPZV9hI-65" value="&lt;font style=&quot;font-size: 17px;&quot;&gt;Correct&lt;/font&gt;" style="text;html=1;align=center;verticalAlign=middle;resizable=0;points=[];autosize=1;strokeColor=none;fillColor=none;" vertex="1" parent="1">
          <mxGeometry x="200" y="940" width="80" height="30" as="geometry" />
        </mxCell>
        <mxCell id="l3Exs2rkQDU-vOPZV9hI-66" value="" style="ellipse;whiteSpace=wrap;html=1;aspect=fixed;" vertex="1" parent="1">
          <mxGeometry x="50" y="1050" width="50" height="50" as="geometry" />
        </mxCell>
        <mxCell id="l3Exs2rkQDU-vOPZV9hI-67" value="" style="endArrow=none;html=1;rounded=0;exitX=0;exitY=1;exitDx=0;exitDy=0;entryX=1;entryY=0;entryDx=0;entryDy=0;" edge="1" parent="1" source="l3Exs2rkQDU-vOPZV9hI-66" target="l3Exs2rkQDU-vOPZV9hI-66">
          <mxGeometry width="50" height="50" relative="1" as="geometry">
            <mxPoint x="180" y="710" as="sourcePoint" />
            <mxPoint x="220" y="670" as="targetPoint" />
          </mxGeometry>
        </mxCell>
        <mxCell id="l3Exs2rkQDU-vOPZV9hI-68" value="" style="endArrow=none;html=1;rounded=0;" edge="1" parent="1">
          <mxGeometry width="50" height="50" relative="1" as="geometry">
            <mxPoint x="95" y="1090" as="sourcePoint" />
            <mxPoint x="55" y="1060" as="targetPoint" />
          </mxGeometry>
        </mxCell>
        <mxCell id="l3Exs2rkQDU-vOPZV9hI-72" style="edgeStyle=orthogonalEdgeStyle;rounded=0;orthogonalLoop=1;jettySize=auto;html=1;entryX=0.5;entryY=0;entryDx=0;entryDy=0;" edge="1" parent="1" source="l3Exs2rkQDU-vOPZV9hI-69" target="l3Exs2rkQDU-vOPZV9hI-82">
          <mxGeometry relative="1" as="geometry">
            <mxPoint x="500" y="1030" as="targetPoint" />
          </mxGeometry>
        </mxCell>
        <mxCell id="l3Exs2rkQDU-vOPZV9hI-76" style="edgeStyle=orthogonalEdgeStyle;rounded=0;orthogonalLoop=1;jettySize=auto;html=1;entryX=0.5;entryY=0;entryDx=0;entryDy=0;" edge="1" parent="1" source="l3Exs2rkQDU-vOPZV9hI-69" target="l3Exs2rkQDU-vOPZV9hI-78">
          <mxGeometry relative="1" as="geometry">
            <mxPoint x="310" y="1040" as="targetPoint" />
            <Array as="points">
              <mxPoint x="310" y="970" />
            </Array>
          </mxGeometry>
        </mxCell>
        <mxCell id="l3Exs2rkQDU-vOPZV9hI-69" value="" style="rhombus;whiteSpace=wrap;html=1;" vertex="1" parent="1">
          <mxGeometry x="360" y="930" width="80" height="80" as="geometry" />
        </mxCell>
        <mxCell id="l3Exs2rkQDU-vOPZV9hI-98" style="edgeStyle=orthogonalEdgeStyle;rounded=0;orthogonalLoop=1;jettySize=auto;html=1;" edge="1" parent="1" source="l3Exs2rkQDU-vOPZV9hI-70">
          <mxGeometry relative="1" as="geometry">
            <mxPoint x="820" y="1380" as="targetPoint" />
          </mxGeometry>
        </mxCell>
        <mxCell id="l3Exs2rkQDU-vOPZV9hI-100" style="edgeStyle=orthogonalEdgeStyle;rounded=0;orthogonalLoop=1;jettySize=auto;html=1;entryX=0.5;entryY=0;entryDx=0;entryDy=0;" edge="1" parent="1" source="l3Exs2rkQDU-vOPZV9hI-70" target="l3Exs2rkQDU-vOPZV9hI-104">
          <mxGeometry relative="1" as="geometry">
            <mxPoint x="570" y="1040" as="targetPoint" />
          </mxGeometry>
        </mxCell>
        <mxCell id="l3Exs2rkQDU-vOPZV9hI-70" value="" style="rhombus;whiteSpace=wrap;html=1;" vertex="1" parent="1">
          <mxGeometry x="660" y="930" width="80" height="80" as="geometry" />
        </mxCell>
        <mxCell id="l3Exs2rkQDU-vOPZV9hI-78" value="" style="ellipse;html=1;shape=endState;fillColor=#000000;strokeColor=#ff0000;" vertex="1" parent="1">
          <mxGeometry x="285" y="1050" width="50" height="50" as="geometry" />
        </mxCell>
        <mxCell id="l3Exs2rkQDU-vOPZV9hI-80" value="&lt;font style=&quot;font-size: 17px;&quot;&gt;Decline&lt;/font&gt;" style="text;html=1;align=center;verticalAlign=middle;resizable=0;points=[];autosize=1;strokeColor=none;fillColor=none;" vertex="1" parent="1">
          <mxGeometry x="290" y="940" width="80" height="30" as="geometry" />
        </mxCell>
        <mxCell id="l3Exs2rkQDU-vOPZV9hI-81" value="&lt;font style=&quot;font-size: 17px;&quot;&gt;Approve&lt;/font&gt;" style="text;html=1;align=center;verticalAlign=middle;resizable=0;points=[];autosize=1;strokeColor=none;fillColor=none;" vertex="1" parent="1">
          <mxGeometry x="425" y="940" width="90" height="30" as="geometry" />
        </mxCell>
        <mxCell id="l3Exs2rkQDU-vOPZV9hI-89" style="edgeStyle=orthogonalEdgeStyle;rounded=0;orthogonalLoop=1;jettySize=auto;html=1;" edge="1" parent="1" source="l3Exs2rkQDU-vOPZV9hI-82">
          <mxGeometry relative="1" as="geometry">
            <mxPoint x="600" y="1380" as="targetPoint" />
          </mxGeometry>
        </mxCell>
        <mxCell id="l3Exs2rkQDU-vOPZV9hI-92" style="edgeStyle=orthogonalEdgeStyle;rounded=0;orthogonalLoop=1;jettySize=auto;html=1;" edge="1" parent="1" source="l3Exs2rkQDU-vOPZV9hI-82">
          <mxGeometry relative="1" as="geometry">
            <mxPoint x="380" y="1300" as="targetPoint" />
            <Array as="points">
              <mxPoint x="380" y="1218" />
              <mxPoint x="380" y="1280" />
            </Array>
          </mxGeometry>
        </mxCell>
        <mxCell id="l3Exs2rkQDU-vOPZV9hI-82" value="&lt;font style=&quot;font-size: 17px;&quot;&gt;Code&lt;br&gt;&amp;nbsp;entered&lt;/font&gt;" style="rhombus;whiteSpace=wrap;html=1;" vertex="1" parent="1">
          <mxGeometry x="450" y="1170" width="100" height="95" as="geometry" />
        </mxCell>
        <mxCell id="l3Exs2rkQDU-vOPZV9hI-87" value="&lt;font style=&quot;font-size: 17px;&quot;&gt;Incorrect&lt;/font&gt;" style="text;html=1;align=center;verticalAlign=middle;resizable=0;points=[];autosize=1;strokeColor=none;fillColor=none;" vertex="1" parent="1">
          <mxGeometry x="370" y="1180" width="90" height="30" as="geometry" />
        </mxCell>
        <mxCell id="l3Exs2rkQDU-vOPZV9hI-90" value="&lt;font style=&quot;font-size: 17px;&quot;&gt;Correct&lt;/font&gt;" style="text;html=1;align=center;verticalAlign=middle;resizable=0;points=[];autosize=1;strokeColor=none;fillColor=none;" vertex="1" parent="1">
          <mxGeometry x="540" y="1178" width="80" height="30" as="geometry" />
        </mxCell>
        <mxCell id="l3Exs2rkQDU-vOPZV9hI-94" value="" style="ellipse;whiteSpace=wrap;html=1;aspect=fixed;" vertex="1" parent="1">
          <mxGeometry x="360" y="1300" width="50" height="50" as="geometry" />
        </mxCell>
        <mxCell id="l3Exs2rkQDU-vOPZV9hI-95" value="" style="endArrow=none;html=1;rounded=0;exitX=0;exitY=1;exitDx=0;exitDy=0;entryX=1;entryY=0;entryDx=0;entryDy=0;" edge="1" parent="1" source="l3Exs2rkQDU-vOPZV9hI-94" target="l3Exs2rkQDU-vOPZV9hI-94">
          <mxGeometry width="50" height="50" relative="1" as="geometry">
            <mxPoint x="490" y="960" as="sourcePoint" />
            <mxPoint x="530" y="920" as="targetPoint" />
          </mxGeometry>
        </mxCell>
        <mxCell id="l3Exs2rkQDU-vOPZV9hI-96" value="" style="endArrow=none;html=1;rounded=0;" edge="1" parent="1">
          <mxGeometry width="50" height="50" relative="1" as="geometry">
            <mxPoint x="405" y="1340" as="sourcePoint" />
            <mxPoint x="365" y="1310" as="targetPoint" />
          </mxGeometry>
        </mxCell>
        <mxCell id="l3Exs2rkQDU-vOPZV9hI-101" value="&lt;font style=&quot;font-size: 17px;&quot;&gt;Valid signature&lt;/font&gt;" style="text;html=1;align=center;verticalAlign=middle;resizable=0;points=[];autosize=1;strokeColor=none;fillColor=none;" vertex="1" parent="1">
          <mxGeometry x="740" y="940" width="130" height="30" as="geometry" />
        </mxCell>
        <mxCell id="l3Exs2rkQDU-vOPZV9hI-102" value="&lt;font style=&quot;font-size: 17px;&quot;&gt;Invalid &lt;br&gt;signature&lt;/font&gt;" style="text;html=1;align=center;verticalAlign=middle;resizable=0;points=[];autosize=1;strokeColor=none;fillColor=none;" vertex="1" parent="1">
          <mxGeometry x="570" y="920" width="90" height="50" as="geometry" />
        </mxCell>
        <mxCell id="l3Exs2rkQDU-vOPZV9hI-104" value="" style="ellipse;html=1;shape=endState;fillColor=#000000;strokeColor=#ff0000;" vertex="1" parent="1">
          <mxGeometry x="545" y="1050" width="50" height="50" as="geometry" />
        </mxCell>
        <mxCell id="l3Exs2rkQDU-vOPZV9hI-105" value="" style="endArrow=classic;html=1;rounded=0;exitX=0.478;exitY=0.585;exitDx=0;exitDy=0;exitPerimeter=0;" edge="1" parent="1" source="l3Exs2rkQDU-vOPZV9hI-64">
          <mxGeometry width="50" height="50" relative="1" as="geometry">
            <mxPoint x="420" y="1310" as="sourcePoint" />
            <mxPoint x="457" y="1470" as="targetPoint" />
          </mxGeometry>
        </mxCell>
        <mxCell id="l3Exs2rkQDU-vOPZV9hI-108" style="edgeStyle=orthogonalEdgeStyle;rounded=0;orthogonalLoop=1;jettySize=auto;html=1;" edge="1" parent="1" source="l3Exs2rkQDU-vOPZV9hI-106" target="l3Exs2rkQDU-vOPZV9hI-107">
          <mxGeometry relative="1" as="geometry" />
        </mxCell>
        <mxCell id="l3Exs2rkQDU-vOPZV9hI-106" value="&lt;font style=&quot;font-size: 17px;&quot;&gt;Access token&lt;br&gt;Refresh token&lt;br&gt;&lt;/font&gt;" style="rounded=1;whiteSpace=wrap;html=1;" vertex="1" parent="1">
          <mxGeometry x="400" y="1470" width="120" height="70" as="geometry" />
        </mxCell>
        <mxCell id="l3Exs2rkQDU-vOPZV9hI-110" style="edgeStyle=orthogonalEdgeStyle;rounded=0;orthogonalLoop=1;jettySize=auto;html=1;" edge="1" parent="1" source="l3Exs2rkQDU-vOPZV9hI-107" target="l3Exs2rkQDU-vOPZV9hI-109">
          <mxGeometry relative="1" as="geometry" />
        </mxCell>
        <mxCell id="l3Exs2rkQDU-vOPZV9hI-107" value="&lt;span style=&quot;font-size: 17px;&quot;&gt;Check role&lt;/span&gt;" style="rounded=1;whiteSpace=wrap;html=1;" vertex="1" parent="1">
          <mxGeometry x="600" y="1475" width="120" height="60" as="geometry" />
        </mxCell>
        <mxCell id="l3Exs2rkQDU-vOPZV9hI-126" style="edgeStyle=orthogonalEdgeStyle;rounded=0;orthogonalLoop=1;jettySize=auto;html=1;entryX=0;entryY=0.5;entryDx=0;entryDy=0;" edge="1" parent="1" source="l3Exs2rkQDU-vOPZV9hI-109" target="l3Exs2rkQDU-vOPZV9hI-113">
          <mxGeometry relative="1" as="geometry" />
        </mxCell>
        <mxCell id="l3Exs2rkQDU-vOPZV9hI-109" value="&lt;font style=&quot;font-size: 17px;&quot;&gt;Display the corresponding interface&lt;/font&gt;" style="rounded=1;whiteSpace=wrap;html=1;" vertex="1" parent="1">
          <mxGeometry x="790" y="1460" width="120" height="90" as="geometry" />
        </mxCell>
        <mxCell id="l3Exs2rkQDU-vOPZV9hI-113" value="" style="ellipse;html=1;shape=endState;fillColor=#000000;strokeColor=#ff0000;" vertex="1" parent="1">
          <mxGeometry x="990" y="1480" width="55" height="50" as="geometry" />
        </mxCell>
        <mxCell id="l3Exs2rkQDU-vOPZV9hI-119" value="" style="shape=image;verticalLabelPosition=bottom;labelBackgroundColor=default;verticalAlign=top;aspect=fixed;imageAspect=0;image=data:image/png,UklGRvypAABXRUJQVlA4TO+pAAAvN8SzAM04ctvIkSDXhCpo/v/hmc3hHNH/CeDv9A3qYskLPKdFfNIkU7N0T5JURar7PveZyrJ0SF1kWx4IIUEjCBrIfUst3cykCgGCqfuApc2o3D4eWRoKrbrj8YXzvOT6eIEqtnBY0MbygVhikkWTxKTqgSOIBlVQ5R/fuI1s22k2xENI/5UxRAwRFXhJjy8XO20jSZAMFzZ8WPkH+BodchxJkhOlCfhvFU8NZQRw8tH/CcDfKQ9MGkYmuK2TSAJBJ5fLVchlQIACjHh/T2j2hgMXesTeCgCG8OYPiWAiw4HjggN7AwYLxo+EHF/Ztf4DRo8vxy4zyBgjRmJwMQCAC8aDp8ZEeDtwXBWO4MWQoJLL6VQZ8VJccBWkT+F5ZHAVgUCMJwBAAGMEgABGxAhuNyJiPCIi5rZ/Vj2M2zZyJKn/rjdcvndETIC/k6NnQJob51bZqjMy0oWeYVE2O7UKKhA8hRSNeaeQ1erkwnioy4kzT+UT3Ryc+S8BfLH/v+6WZDe7dlV19VRPTXVXc/fw9JweZp4DZmZmZmZmZmZmZmY4NNMDPdww3V3NzF1dXdW199r74nme//N//s+a2vWcFXgHju2Wxi3FbP+lUthYFytQwVGHsSzXXDzhVRd18wRHFV5md0uZE5wtpcLcYT5SmXlFrnOXHaiLj9leUp+R5oR/FxXmuliBDk+bsSP1GWWFs0qqcAyzO1yWqD2S2Z4t1fYdd5hmpK4TxnXRvsop6agk/wPmE8NM+COdnrCpJK9AhU+H01IMfS4qnH1RE8YdToVbRwon+6JWOIYOx3DaMGF6LirMKelvZuzwE6nM7JK2qRTD9IQ7MFFrpA6n9sUOm9kdHhk6PPtih7nCMXvM/JfcJ2yqi8fQ4THzuugw18U27AvDVDhm93HS4eyLqjCbHU7LjCtSdZhLiidJsmXbkiQJacsIpCnjretaBlF3ZUY6AW3/xXQkSXIkSWqxiN8D5P104bf3JD0mQIv0/69tzc1/rb3PTZ2Dcs45Qmks0hwFNQdNQgMQ63TPOXstcML+nbMHsD5UCaeDpBmIJtZMOfzhpr0UJvBHClhQUEglpBJTc7EuoUN/VEdVL1bVnYeyXqQ4gE13vVUKWzmnjRRHoGqknCWbHg8gZ/sIJnSpkOv9ewhGOeBsbg3BCV3Dhsc5sj2CrroeRw6oR+BEX/iljji93HPIAXsEqQNq54g2MhdzHEAOWNA5D8BVyzl3YK57qWEPwCjHUVzkqjsFXd7I1GttTyNJ3yeyi2aWIYQNYyPYDDYJ5q1yke2qacxn9xczMzZDgZkkfaIgSZLbSMrI6gbm1ItvCKLnsae1Pi5QGROg59r+5ZYt5f++c661yveuqm3H3XF3d8g0649G7O4WucuRdj+67cjetauWzDnfYK0112/OWZ3fg6wyJKMi3N0l6xCLfuGLcyrt8I1wjdwJiVzWwe0bLHz/I+TFyRjrA2BRW4rbF5jpTFfEGKezU4NsRYRWaOiuFZ8Qh2rcZYUtUb+EDicicifv6IRNZ43DPEQ0EbVDXP5pD6IToaG7W7tGu9OFvzic7GTIwr6CW+aERHsQWXRw2OEPdyfrwUdoS+kQidx9prsyHOrg9hEgc3cn3Ayi+gqNu3rDtt2Qo/3/rrVWVVe1FWeS4TPB3LbHc9uPbft59by1bdv27TtOJ5O0YieNdLrTRnHBb23bqm3btpVSLrWPxbzWZiZpO8iobWnbtP3YDjDj6LXkmIAaROP/xv+N/xv/N/5v/N/4v/F/4//G/43/G/83/m/83/i/8X/j/8b/jf8b/zf+b/zf+L/xf+P/xv+N/xv/N/5v/N/4v/F/4//G/43/G///eEjvbWHr0UfoWuyrbVl+GM5Kn6A5XJD3NVvAtu0z8tbMUzCTvj/h4rwfuTTa1sV5efvm1ZD19XFPPng2xwG8LUoAbzpv6yxXHx9dfJ46WGbbtZxtwjvIE43Vt2cW7xPXxjLbtoUeiXdrNoI+veGD4WJhxswI28ayt5q3dKQ+PL48H2SCO2wbg7Pyzs0D+/D4+nwIXAXA274QWp83jbdxHgr12dHluADbYMy2caGz8Q7M40Bf3dDDG79CjNl2LrI3ad4OJrI+Otkl+JCCxbY1a807Pk8IfXO9Je9TroflbWsIPQrv4qxUnxx9UFwMts0L8rect3roi+ubfqDMBrztDcGZeWfnUVEfnPEPli0js21eKH91vB2zMX1vwkX5GAvjbXMInfb5PTFZX5uwdb6/KyfIbLuXN+DJ5u3kFPWtcXbR+ZBJxbZ9Wdk7zKsfq0+NtuJ9SwBv20Po4Xi35kzQp3biOzSIeQB4Itb0qdHjcy7keQNrU5541JfmYXk8sox5RPHlPrDvjM7AE845EPOM2WY85Uyoz8yj8cBgNG8g7Eed89FnZuVTzH4y84zWmsfPnn1jxJOwWmIeUjrlo0B9YbwhTzISmncQ0gtOuA+M9OQ8NHjeAucfRa6+L5yHV83EvGb2sg9wnxftt/fuYp5TK9/Qyj4v4cG3E/Ogus2jJ/Rx0e5PPiNY8xqCDXjSydynRX5szonEPKi159VC35az8FwZaB4E6QNAfVr8ho5j3kTwQfDMcR8WPWDvTMyTCnj/Z10fluVPykrmYf/crzlFnxU95txFRvMmIqx6zVwZ91HR2fkOgzDzqFZ4Nr4wu0+KeEoensxi3tXZB8c1UJ8U1jz+WMzLKFyR9zup+6LohTcemXlYY577GaEv6iPzaLHQPAzIyz7yde57MvHqZveMeVtDdvprIu1z4ts9IgbN0wDhurzGXDbuY2K/6nLmeQ1cipsU7lvCSado3gfD0Ac3O6hPicN7Tca8sPHV85EX7kvCy7yrBaoLLYgQrQmQGlxgNCqaIH1LVDvoRgEIr4WnR31IvO97UM9CvSQCSKB5K7xEZTqNRp/BfANshX8JuEaC9P3N1XDfET7Iel9ZRn1qQUJYA6fKkoBi44CsiuuucPUAKJhGYjmljjiMsBZsQQDWmJ4LZiCcbgQMXIbvjz6j4U7Pvcy4HjRw7+fJ8GBHUmGqGLkL86AaXsZLLJL2Bx3QTyNoA3mJFo+2mpup52Zq0/Szpmz/WVM9S55nfjsnnbqRAJHd5h9yq6xviHkanh1Tlxp8elSec65OrEMLE9mjWzzcmXuRJrfkSSygM3ecx+gjmNmhDBPMhJIwmq0t26+tC+3HaOrWTtXYzojQfcvmLaOrPiGc+EHStlwPCSTVEcrF47kDWmirXR7Om9g8hHU28G5Bdka6mvvgtxqbuNId1zY3bHoNWyC3BNamLDQSyNme7/Tchj6hen850TJ1qGlWk7zAXtcVBLxQwElslhgxaRA3F/fiBQb95Qi17RSHcsGq5zxonXgH9cLuVNTLwuIW1qchdxqnAOhGAZHt/Y7TF8T8iB9CTF1qoFjNeHAj7k/xiAZglS+HmxIJ9GJ73Wh5VclSrc007F5LvWRqY2o3iyqM6rsb+oh2Xfcyd7S68+yscQUUIyLeUV7toD4fuiYfOXUaIMa90BrDDedpYcOVYxBVm4LssHovke/Z3dxbW2no1hEXLXJESSC2aezvqNQMgggQMCvkOzhWJ8xHBZ133mX2pM9n8Rq5LIDrAfIjqr3kdOaRDtAgOdzjYa1NRIGIe5FMj7A5VpYwaKvAjsP4XjLdir2AVcsdLW9CmqFCSjXqttaBZTAGuhFAKP9rvmx/X49w+mvJUJCpzxHai8fibNIMLwNhyOM5jV0sMyNfV+MhpHBEJyydwNpI6d7Rg89mY6k5Blm8021UQ1rU4Hgb4mzAiCDnO/9DXlF9Oxxe6CJI1KNCeUSR9SXzDI+sD87hETKr9G1gM/N96tiLbuxFGr0Fj1VuGLRRoIa9gN4HuboNVPBGOWS0drA1BKQynbqD01Ql0+qYLo0Ewm8eb8NMqE+HTv/+8lSuB0K2yuqbjCzBI5quYKudbjR6I8xjGonWwIe43o20J2G9WtsoYS33Ia+S2E1QMLzRkKwU7mdJWQ4idOr8VpSzUyV8NJxvNn+C29GX0+H9yw4W9ahh7o6PPnBdSVronZpNuMM24MH3swZmU7GXylFBNIRh0DaB536xIkcWejtd8+DRyKZ+2PtVpAWnySdRd57INRqgo94xuuq7YV0gN8FyHWggwV1n8CCmdNQULxNgzxp3NtoFAzD1jnORVI/UOVYVtTZR9h5ucYnULnmmNIhLO9qqw6JBphPp9uS7zRgAnTQCyNnI2z1vMlafDa7D+8YQoi69JlIfZCIjDRsAHlkfsobHY2CHLHbgJ3mWs/VN3rYneGsLDf5GFz10c6WZH/hJ3vi9jXTHSCMhXRk66STx6O6+c6AC3PlIwFzOwns4R/bdSP/a15gs4DrQwGlHlrzE+JlHOkADd5Mv61rswJi61LkLZjna8MpKY2Tw1g7B3+kmm4tl6pjkTO3Jq41uK9KQIPRlUKxQt9X0AionLTQCCHXf4nkr6O+r4UvymrJ1TL2usrlENAUtTEd8nqu1jjfHT+P7DnZNgwefaiTFMQiDNugTnMSDT7Ohwi78NJOrqbvVwiGRFlcWt3OsTUj4aMDDzdvNY6C+Gd6a576rwfUQ8EcdsLZskeFlAnysI4jD2p6WGU1m/+78qb14tZfzW+UE2tHf9EKNXnSnN81o0liKDevZOwFCkOlIn/D8K6i1QCVGGgEEI28y/9KNyfpk6HL5ENMGU4eKrjK9ZNTIlhbaX9hk9LTMetl0ppmjPJSV3cB58b4t9qwBH9ImsVmwJrypI1SLd7y1JSqD6K582t0Y1bjOd6OA4KHnT/B40BfTxfvHOmPqUIMDE8wxOVaXAl4mgP9YRyAqFKyXMb0Pemfryj7IfWJEv++tRdrPIuR32ZRvXRLzTeBNHbeR33Eu9BcmXUd6/lOouwRy4iggssebd5p+9cHQCz0tgbrUkCXQDTqXmo4TpYV71rrdYBbIaNaHbh3z147SPVaFMGhRID1K78X3qvvM07SHuNrxxhqoswCh2xLrgf5vJ40G+dvJmzn0vfQhf59AfQbSGHPeDYeaKfAyAbLEk6P4rdrNzTNTW9fkYoWtgjsLWh2BH/iih91Ya86MjYiSHOwYahdk08EKcXvInQICWIyI9nxX51yozwUfbK4E4Hogu+9jSlx8KnebIZ418G72u0HrHmbsQ3fuImnOqW0dGoP9QUv67DzC5CJpY0rX/EzAKjW2lVqXnYPOBHju21lWmNYnvAxdByDEmzdvC1lfizmc/FSkxtShUqy2vdRVGxwH4mUCpMPBOWeDhgj4meD75Vt9sCmcZNfCoAV9uk7qh1pX3114ZuqNrLp7t5nrMEI2Hd3BHUlnJ6CRQGTn4O3lsSbrW+Ghr+cKBOpSQ/aBz5FmdTVphrxTPUZ0SN/7zoyZm9YR587yIMutEWlt9mEvWssFUtSRmSFZVizq2X4pUGeCyM/fR61PfI1BZ5C/KfM2cSbUp0IXz78vtVwPMPvMLx7lxhleJoWFdU4P03tahheABOsoD2nFzXavRtjdCgcWG5gPeW0jiwNIeiMhVEodq/MyIJtO19ItiQqpxtCZQpvw9s8LW30p+IBniWXqsfT5MfusqpFmiGexks1ghWNqCPrQPW19cS+VN8Z6a0HvAS9e6sZ876hrXgBvFrG6g2dQOoLOBLE45bgl6k6BXiZ0BHL+yu/6sB2z1cgyX8fTZkZbQJ3uOszgkhOTiEm9VAIhv6/1ZlHzEvi+r0kck+8Q61/MWmAV4ZE1TvN4ZJWobiXSZxLGXdel21hWhdbGVMDOYGpw9M2Yj7qbAOE6k5+jGB6IYzSuPCXrgIHYFkTJczWwdM327PYW9u7T7Lg2AzEpdT4PKv//ipYU6QBDPs+B+ulK84im4CgbbzqP4il3+ZVeMyu9FRq8NcpUj+xhvs4jeaRH3RjHgSDjjYhTWPeGilYbe86P2+tn+uSHSO5KZxzUWZAdvkZVzLHZimF4gNibtfDaZoWWZyhxVizNmg0P9BjlHWFUiovT6MQFsa19iZ7x6pLm2nPp8c/O3cbV+Oa8GgJ1mohEUo979ouX/+q3U1qYKDk6NKsbLfGIpsu25AIz8hDn7Oe5GTNNBOO233yqc3Rz98f0OHxR16ujNQ0ieKzouFpKAZ2N0Mm67ji4j+nNwbQjBBLRFW6gGGZutGKr5WhP6FRQtjhxdToQQjkTWUjx7OiIiOu1GWoOl2kOY0IRTEWdab1p6zyjhtVVWZbayErc8qDYmn37lj75fWcX8UBY3+bm4jPhGMIJRDkYvVJ3ahPbs2m6P6A/Qa0zBlP1z0ooja7WXjlOhFbWqQu/97UDlDd75YCJdrtqHYCIbuF2GgetlpK3tCdETXs9y3KPgQXW8B4RWqMMzBCSSINXmyaUp59GmzZbEVarkgGbBS2aw4CL0FwtrNZBoO4jnTdrWQ2qVTuMG0CgZC0PSHhOeOYLtYNHqV4KKt4cLRrpTYiYkOIo7vREr6yzMW9N9BnA/XzzAYMpBgO7Xv1ik9smMxU6u0fQVKYKKZBNJ1Roj0RPzPgR5q0DohvMrPQMVjXDAwAzNJYkA8cZVMZg1JvtMQzgHgMEmOE9VAlotgBFYI9pPQWwA8p9Aq4u8oIWNCdbC1o0h4nsNixltSgVCm/RB4+A1Yiyrtyu0QKABc1OkpaBU7beu/Uvfs9R1CMcOONwl2tqewPMy6TgfIlepSObWKFZBahz7w4GNLlUf7Iu5BJBxoG2DEyhIfDMQSZ0Yja8RTUdCN46qzSdMyDiTRZgg6g8NgnqtUxpmGPA2GAZMzYYBcuA936qKfMCPNMq+TSxGoxhYHJBi8qdBZ31BC4JqaFpWC0AKd/1LfvgcBrSQ5dZM5oxZVtKEiw1WK7w829OZF/UI27D7mzkXAc8oqli0a2665tYY96aCEC/Rk1EGTCteXOU+gkbt48jmhOkIjjQIVgVKhF1JnQiajGymIj6nHM624APXYqo+sBWiUh4oPpebo4FQJSWHDijIoEZ3QU+873pwq59lJMKhA1mYJJmiwVzGxGnYME3wXoCd/ZnYBIIuw0DLAXQahDKH/s6Rg0o6yJtTkuhUy7hYaye7KA4e7edF+Y6bvXk4CSykCARzQxm/P/jjI//n/HF63SIKGB0LdE1YHHKaKlLapkIWlJr10oTkA2Ccj+CTO33P9dolc7S3ekVDXaUURC9vQHmbJloGXJ+xPSAXEMoUF23WUuLpTHNFs1WSfSORpEEdL5MWqBRGKTyKOvVYAluItDWdGlEX7VdmVksmAGjUqeZLEc1rFOn73fd7ZU2ZuLg1VzU/DNHC11+D5rx+x9G1YkATB1nUBTMk8ULRpk1hJNz/v8UPR1zOLXxQx7Rvx3V6SO45a4RMtBeCFOxDQwkSBCQVKFDqXotQQs6MGdrx4dB91925I58rktdiRkvFiDfIpMZL/aYpIUpP0X5ZqujMiDKd0ZHiaphoANTAiHhph22aovOiBpPxWXYCFPqZgtwciBeWX/fa7vhuJFIx83d0mkPVaG9e89wU53xyZ8Zn64z3JlBxWZJyyCia3DYqGo8sYinpFBTUwohlgfJhH+znJXJKF+pb6QDRtdA2rNgijj3h0HsxEza2JiIozBGq3cyhuYATeZzdr6jZT/fh70KWGb4/gdkxovYktnmVLM1RXl3RE1dYkoFqx8yCJ1OE+GmZrJNJhpP/r0sGgcDAgPN5CjgKufn2ds5xbF1cJSru02cUXJEHWhKUsbFnPHTt98oo1TsdErmQvUatIxXjTKY4kU21pXrvpJwG0n371+Oer4CnrhGBvCp1FCgxAwAi0FROgDN3gno7DFInGMT8HENvrIgn/uQcy1ktumtVIYoSZZgSsDoen7eVwALt5l1m9BwWnT1aRuL8oZWcmJv0YO2Bk1JmE22sW5tm4iBWIICyQw3bNLpVCprQNUQMMdTmelnhIHMlNmluqXkicjGiSo0RTXq5fM9xIjep2SWlsJUbICT0gR8BGNUOUqv3fwqTJLTFUhjLl/IAHKIrRygQmIVDWm0cx+BUImaXLexPg0mn/glBhClomwzGaGgmKg/6PVqTHC7inT1QBM5iPVswW1sshBHaDJKRQFa2wJRtaILXy1K7AJnyyRnFirXQg5uwhSulnkFv8Ms+GgIYLYWwv+SmAdLEtsCFsJkNR1wL7UHgKtK42QFqRtDbrsocLZU59ShItA5EAYpK8F978ttN0VqKG3NXv0msqGVjJS4srrXa1cFONbT43XJtvYBuohmijNxI/uVtLO6U6nUBhGr7q+M1rVYskyE5Ki2fPd9aE3SXIc3llVV60ShUSgNsw8wGJdgMDnA0hYo2igI9TYuGRgERkXV98/3siMDmdyiTdQ5u98lJupqwX1UBiShX8LWDTeS/OytPRuqdxIKtJyn9LOaTYT1wXKvVPo3aI5sD3ULdWsuwSiRvZaYdYWlrxbFq5CKQOLir3GQW4DSsszq/nUUxIi6DUxRQ8FAMgwEqu7QW08OAB2qFRxxtAPQDRDAayZG3EQX5UXFcJ1s2KTGkU9c8rocRaNlEjo4cfS423b79XbOhfVeTmop8kuu2GTWhKp0OtFagGKBlP1xzCjdJSUTSU4g/Z/Q0zHIxsWNvftRnRzvL+0+lcyeu8P+xC8AJwMILVAVwFivtIepwww54+3vBFofIRFDh8hO2yMNpPbFW5oSuZUgjRTW36nVZMpOvoY54alfFiqU2dLduEiTsj8CcBQZEDGvqEVN47GequZFSEk/63eWQoCbIGa9xGUxwuJ4D1y7DdDrSmH/Tg0GYZDBRBgwEnHavU4LwDHEHQLaTCtGVyVNqtIodABVgC1at79h5MtDm+gCJ6MgImzJctfLraCAG4kUhjqdWxRCiiO6fF0iieS1C8AlKlnbAhF7yqF4zad/hhOoDFOpLgi93hdTG4dZ/3L+2d8rMYoBpjrUVigJBpYaE6fAvYbLlYp6rAA6gAhZvvsM0KL61XQQkR3mL3ejaEv2WUW1AoNrVkCdctyY/0c4ts7k558yfJWZR5eiif1KVswTuWVq2seuU5nqqcpAJiUuVQ0FCyyTCUIXi9b14nwPXLtKJSaRAwMJKF0LiqXXnZwERF3mTO68jQCRUVUMnQ4IUAV8nbf/5UiDKL1KrteI27UCTtrypAQTHLN7f/UbzpDuseC2G615SJlvoACuEADVQNGFKJdorYcwGQ5RqP3FHcjGxdVHTn4i2l2AbNg/AUk0YBO71JsMDAAmXu1MhgO23fpomJg7o5Hg6DWoIbTqMpa6OoGpecFS3eLEGeo1ENY6PxD51UAuk/XM1evG6ygKs/Om8lpA1DKAxRFdqWZeRp30vf7nMbgJQjeW2XjJyGS3tQx0ajdDnqxdaSDWURijVx0wtdUOAJdjt0ERELtcFeIVMMPP+xJ9C000guyXVCBeg2tSQCx7jU1OXmQJtxIDTM9Lv0NYBxzWJXS7cUi6XYpKMiBq6yE6SDy7oDIpTQiG3/klwNjEHcrcBVMIb2m3GTRF7cXAEUmwQTF0ANyLDAOjiq0gIDIeG2XIscsdeGyBqNZ3k6mtoKNo/ho3hMavdPDVacdV6wKYsDn2RRJNhLG4aeBrxTiQkMv0wOU2inS/5vi9eG25VgtEjTVoVok2ShVMBLTk9Qs/gQzLZAHiF5TbWR08A6yo3WUQNR8EGByslWGyR4yKOAfhQOzeYg+gRfwCUl4YAZncAQhA0PouKh2oQeXRCOH6GXHDh1WXahsQFIfKuQagkcyVR9i2JbiR42syJwT9BuFIO0YyrSvFYQGH4sHuAHMSSKZDRg3jCE4H6ZS4+NylCuA2jsrCvbRuQEvtDgFZyyR2QLUCjhigRdwdesE9SlqT1G/eZMuuZRQnqXGnw+inct8KsEi5Gj39exVteF0xJPJaW3Ic/xynIy6CUf0gJytj7UBTR4y21i24QIJ0AvDAJNAJgGqngYV4wyiJk1XzIhweqq5cD3tfyAZQ/3qEZf8Q4bvjPsCcZhKpElwjw+Ri6MQmUL2tBmgOkMT74zZAPqDbbFNvaX2XqExtR0dhlPu2IoSwahMaPvnVWxs4KA6BgaZYAXd33AskLWG3kTP/0jMNRYuQTRfKaJQ5JUEBvIEDLAVEItXhxOPOgpAOlsGqKuq7BRK4jaNg6KW+YcJkdwD3mQOMKgEMlowN1MTAEQNoNJ4xekNTakA1EhxhmyEge2zTW2iB1nfDHqbi6hp0vokOU4AqiS+Rrhs67g/zU2poaEkVwEkbnLRCDLIbY/Gvv3u/8gy5TU+dhNtdt5TraqpAl1Fwq9US2JO106CH4izx+j2kJpMcfXmQcSEbxOyTrv4XtGsM970vCR3EkzUpXUxNx3BdmdI9AJrUOLKTOdNttav3GCaRomp1jz1jpAaOZnLL1x6IXZTNhWBpvMWJkTaqFrsRdmKt8qsBx9o1G83VWQKTyDvgEJqUtSdrNGU8HVfF6ImQJlypte6X0NRmKo7L0jdEXLtC+D6I3tFAGOioFnUuSocBOtT6aMP+vhXkbitvIaK4G0zFA2tT2unAaCXCrHYNujRy18zPakAHmjArU6Cf6OpLnLzgEuKafKe/2m8lhGlmqJurOxByg4LJDk2HpZMlSQwQ5RPH9tTMMhG0DIza+HcWDFgmk7SETwrgGxA7rRLPAUQyBQLVojRAqxbqBQZIpjbc614GebNtewvekrsdM0kVMIo+lftWgpdev6lxYzrLAjUc7dACCokCLSdMjh+hYcpuKekrBgOd6HyM3EbBpRvN4FDoKgVTBmdT4KUL52iyxLYHaqEeu+1om6VUZZIT647g5WtAJrj4Ba9Yr6/7o50q1ZyASPRcq1GA5mhsotR1YwOYJI/dAHjufIW0HbylVVTrO2MSLOjA3H7uVcGE4lo8VNSokUYW9VPTJhjxSPIqY46l9UgLX8VeEep1CMc0goJjuHFcSYfMyZlyPhhNAWPssTSY0tc91y9PxgfBXnNlfJ1e5WwRknPxwncHZIKjoqw/Uq3WdXLtiACZXtTgACL+wRLVTalJsrDOJIb0TPRWLaqBAZwUOiBA5SRlIc8bNWT3D6E2FQuRBzopzQkv4tkt5JCKkU6WxjozNbe50ZILpMrkYkcBqAOv+1MBmksXLm1S1o5NAxZvGyd2SRFOSf/0l81BboJQ/3aEQFfQzpTOiWE0OYOwPwzEB5jarmcl9Tw6AKDERI7GRl3uhtjYAjvmHhIj6IiIxtu0+WfiPg0adYsAroU6nRLBAmqWxz5Dow7iSyaVzJmmvkrIpoupm8RRmXZHweRMsJ5fvwcQ4DksdgnYjocAGs/4NA3LRECBVNUUXqIwm31Mf+MQPq5jsmMtuO99kyNKHdtScADVAlA9tSZdkuT7M3yG58ZUUTtjYI9Z5cRUVjkJbfXWkwk1ZvrvvxUBqRY0mzGh5dVX2LJBhGS3kB8enit9raS+itzGs+CWGx14KIFM8sW8gpdKhCqONZcuXNpEAJPxqPcOE+uJo/c9Y15mikLJF3dmLs2KbCzruSa+Q2qBRIIHS/aP6+7AYhA1HqsnoyQlEjkN12UydEN1LfJ2Jwzs8eImuaOjTIEqlPrydmZoyGYTs6sraiwwUMygKGC8yYlTJA11N8LpYL+S6ht+J0wwTdVcC/cSNgswP69AAZREfN3r7afAIbgE2+iMIPSdTDyCq9ZhFdnkzOqmCq59aE1wImVRddQc7IwCSVeJY7r7APgIRK0nsZPnklYHM5ggxzHM0GbycHhLC6B4DODCJLjT6gA4CjvtIjdghpdfdwyuEYICQX2gqy26dQvkxV6P68eITiZZD8dxc+v2YgBFwdSq5j/2HxMM0ly6cKmbgwD90J+JrsBHjGfrGDikFyElgtU3+gEgN0HoTQNVHScK2ajEBiUL2J+4B0CLwTUbE0qcAJp7AGMkOw23GMMF0hWMvVVLcRjAhWEqOXSgA6iCIVyHPFPjRa1DQapVaQFFU7MwGNc5cbI/nN1SzrlBr78hCGuHdVncrHMKRVEA+KmmiC4xOAjYYWmTmFOfVZJGm3VIpKfwK4OvB4NsXBz39q4Prm8kYe9AfWogHmDxEfTKBhgwSR/DeLiNz42t09ICKCYXhikSLEAwWkECDY00XMQZdJXBJFBMWTST4ziRylVGHN0VeU1WpVYkvQZkZUsvO5qtq8dhM4p5mhRkVSCNjdIBcFjqqfr95iBEBvF4XatYTyY5F/916XcEN0Hokb101AeP4BYuiw7QMaB6GHBscwxQ7cZotRJWOgzgZG06HmYMzw33N9nUW7EYWFq0SFhpB+5733KlYausnWi4dHuyUUxSi38HRRPwia6x7fHP0pUT/7o36FM5cOgmmbIULW60xqHZogDwvilFg86UJEq99KwGZ5kp+/1+MxyKt4zW6iRVMxFSUl1T93IsjB2u9m5nPTtfQzIpbQGiDteT949lKSw1iBqPATS/zOQ1AUSyEwGSyEPcB6hdDtK+XasWqAoDuDBMkWwJRJXe8r2XDw0WrpmraytLEEO+R7lYqwnHMDcqye56jcldlFmGqIe+m+AvH5ifp00loVFA776YNLmYRnMcTzzvpwWToY/jRN5UHCgMRBC61NttYX4GWEyGyyftbIiCZ7tpIDBKzQdLaDk5LhloAaMkfnBSxOhh1vMGY1pvtSjbimaAIwqDSLzBVajz8Nd+aqyMn3hzEiqGnEM549+s5brGHFuP31GRrDZdQNr0kFtpVDEtaGcBBtDvhymgmIJcy6huNI/DKl2ZFNM46AdWTMaFHll0rheNNJQC8zUU8HTowEAMwN3dce0SL4DJJjC36CVbMKmYOKhFi1hDYRB10QQURRteu9oNlSUHz9mckNI32Q7E/oq1gmCEMDs1kRnWPAClTNfMFevGaDg4C8C3DXRkyuTi7vtTQDGpACdbmSXK7gJeSOFZV8LjqIYXQUAvGXXcMBkKyL/ULJ07PBzPWtRKxhhjSoopNXXaiWcxzBAJNjCHYhJEfWAUBfI77So1UMJloh5I6pyHfCTwJlv1Q4LQeiGYW5VZTUpFbsyE0ssoaTJlkhsAz4wDdmxA13vP5GK+WGRyUUAX/aVvRZHOzBwn7j4VWYVUxB2KpgrHX48aoiiAL1WA74T9gf3RQDU2UzZNEigYZLKVlIiqiz2qM5jVjMZ3ULlWq4INhAIQ9WpwJLbIiGmYWr/8k7CSA5mHfOQW6q+1lhCsmGNckjAbir8ZSo+oQ2JRauNZHcrpdOlk7d9NwZRFkeOwlSjRRg2TIV3GKamGvA5YJgEi9vbjr38jtL3J93tt8HTu4GA1gAOJHYPRBLlMfQ5WB9yA5mpqfBDQKmOAkAKiPpuj0ARFyuaPNE606BLkhUjMkjlAhjmKKzGrJeslCGMP4w5vN7YFj+hecBrxZKOaBxBslUi18x4PUGihTBu1jCd1NRBXHCcKJnYfRdpRUY9eMqvD9/eQtI0CqKPspGMHS6o2cHcnB3ASXKYFMFwn1beA5jCjNTkIWgcROaQGUS+tVkmV95+TrholbE4+TnLny+WEzMY5FGyF+LzrJUd2JQ2W2LcjTZQS0cz07uO5G23FEchn1m2WJNQXdPdCkQiKYiqHidPGkb17NS+TJhActtI1MS/gTYBZ/24L01WLU/g2JtegBfgOUclANaVrSfAYSRSlTYBR6nZwMFoTPIyoeQtoAQZCYRB12wIMiuKwVTZOo8SHbPG0naRJASuwD2BJBl3XCz/O7nQMc6OSbl3hjd5FiZdRSHAqo8yBzsyTaO8tQQEo+sWkOYcST+kMQGVQHMe5UvXqGA7JwMbhuH+1/6PCLSZbFcCX6oOnUwcZZHhgoKq7G6aSIVASDOBJQNStGBhgIMIkcANqfhBwEIANhAIQ9d2k2nXtNW6IuH3i1rN4IEEwn0Oes7GcoF91jTm2HkKFWGlmgRJRjzqpnyg6zAI5Ms3kTPbge9DvF+BIo6pRtAvKQCZdMa10GjHBbBCzsnBwDtOO2qIAasiddLZgeDiSgTmhF24NAKZ+96DKARh27TgIWoABwqGAqHeDIuXXzkMjNUK0y9USBkj2BjYtQwa1ghFzzOZ+xZBlDl6mh/3AeIozFBVq4SSB9+kiUPT7eqgyTZRnAZNBUedMJTgRK+Y2U6GiHFX/CMGSa0MBzN8O4DtpYIZgMBIQPMVUopyEBQCivgc5rpKBpST0IMqGdAGI+jY0iWw8m0NGaIheOiHQGk3aprEfMdBaT4WwLrVOfFb/v6RENDNOjWf6KSGXqsfF0w2gSHhd1SiKM4t5mXTFiMPzjpaQTVqisnLZccPPE1sW91uAp5OHBYpiwHiKBI/xHOJqqjdKwEHQOmgBMMcKg6g/HEmC1x7UCLnrCuNRkjWHDJTAygFnU/aZW5Uk3ERlyABKLwMOG222EmOJLpLdEilxdK3rgb0JTrRuvHyXUBnocd1KOA8MMsHF8bsHv2uZMJagKID7nQdPB4vSgQgGgpkisYJBBidr4DLuBViNUCS3sGrHQQsWGAinAqI3NEgVgBCuml3V+Fh2seQFIuFzIOu6lYO1WjEohTAu0QmSd/C6KT2yhjN6z1EDciSNOt+7+LErEV0DMCFWHCcKTMWtgkxwVLRVpnNwcrmcyTt3gmd7a6ZI9Bg1bFLqAXrjtYgE2pTOmQLA9WegSXRlDrkbHelFk7VN4udz5vBb6/l5dqM5cyMPHzZ28TnBI7oXiBaItrMAKuEB11G3u2hR1kpswXpCyzhsJexzB7kJMCv2NXjdBU9UAczfL9vDQYYrGQjGyQLG4lpN6cAwMFp//4iSgQjDxqqdKXVxN3rL0TKKgtPX/mlKjQ3vs6owdTifo+DOXrjueqlfiTAu0YarazQcA+EMdUjX3KcxR45op0GOVWK6gqZkMn30HVbaZl/YjCHIXk1cf/hVeHS8hoDi3RfgO2yQ0oEKpYvpZSebwGp6yclyhqUk0QDNnjl5tyJ1ie16cwtMlZ5lxRoam+3LM9+ykscR7/Gtz6+XusbcyO+NRevCqkK14QKlTNdwhGh6XSPl6Yh1qO9u6YxUx+97VrxMijlG3DVvFI0Okv7C6vkMZ9vPD9ER3EcX7rcPng7X/gg+3ShhAKYSpoGaNBG944xicHBg/3IHQYvBsRoZA5pj7dRyKF5gMQLs+iptVmG+miv2+4BMjQxfPa89C4jkt1LsRaxlugcFgHGCZnF/4nBY9wB4mb265OpUxnzWea5izfrSvH/daoz3cYizZSY7R94pidaghVpkdV+D66GwnyFucnbuBE/HDwOonIG7MzhF4u04XKZDi15zgEnKuoWNqKkpO8fuOHtZAKvX9lhxKqW2XV8YKYLk/OqzfrmB4eIytAOugwKAePcPGbQgjD3ctIp64xJhBxqO9s6iQ41FuTpX4LdVptdZxTKhZRznX/+AiHyoFlgn1s5mnZui9K//63M77hc8na+S8guA0Bok8WOgOEptFnR6D1A5wNR0QYuyC9sfhsElo+A5VqRLKWs368bQBEcAfO0aztW40F1XGYt6UIm8yNqGYMTcrgF5N0MmJaWXAUeMdhondKATpAh3HgTstuO1OizSKVZ3/p9HQkNBINV+r95VdV3BKsXybobR7XD/XMH2crBCCxbcnYH/ZbJEzHYZWKBeZICyhuG1NXGL0nTWFEspL4AODncrgikddh1hUCSy69oIjctlz55+I+oy0Dp1slZrDWoQ1qXWZEYI/5/SI+odEldvfJW7NMS3B6CO+ktctVhPBghWtaX0+hLJh2gV77fqWPtz/qyZFMoq9tuEaoOTZX47IQYGgAXAHFqdKXpDM8hBTUTvqsky+8NcY//94zOlocfujkDSDMEoSAcJaTgtUmsMsFUXzdEyVfrmPTkjDYvZ+XnsujXU5Zx/HiZnFay73WjO3KqkhlJRqeqWiKtDRvGN91ygJbZcZxyKs8ZLRTUTWtbP+jMFg+EjlerVv6u+K/2WSVRxsVXG5m/OprqdYHB4bge0ALOAOhzDrsIwwDCml53rmARsmMSOyZSdYz1aClgCOrCassJNCEV790kqKnG0WtAERWLgekVoUPibuE5ts1Gnuu7/3fVaxwjjEq27usrgxuBlSsyViCdwPOTaivrXwFwlTpSpYUJ9zletQz9R+LZa+DP/Yf2/eUndEl1a9euNi1kg314IgYGXaFGXg6BoBugJcFAvI0TZSTO4nmIxZcPCQKkoHQVwCUgATnssdTlQ0hiN43Vv5Wd7VzUkvHXu1LNRnxPozV0R6znXmBt5/I4RTEV3gRJRT3konieqUmpOi1RfBLXf9h8WwMukKLQ84p6gbYEGpNX/Rl1Y03kAxKyyeUf+GycCup2oPGOtpQ4FY+BIBgZ6bO4GLXrrI5gh4jRl58wcW0ypKD9cElGCDg5FEVAJKGFugan60xjJGxLsczWC6+IhD5F6MWsZE4RZwvMdRupT0gK33zipk4CiVfW+DM853km0t4d0IIMzqxMHlQeDb6OFN1jd1eBmHOMJoURx+Lmtbloq282BgZIATCUuRgM+1fTma5FiMKVL07AYBgdE5SaMRgGJg0bBqUc7KgElqgU0QVXoKrUpDYnrc3AnUKfBqrdkoPmHUABWZbdOHOJ1FCi9DHDPvw26bN/ooU6kMtqDiPt0WhN/JYqtW2DdsnY2fsKhzwOAO0S1jjyzkRGHzHU7MFgyPGzwWpgi+aMwFsUGjjhuANQb2RjWgqnWlHXPBACNEVWDKBoc1FktBLSaHZWUKjF8mYChGS0smzN2w8G6TNbZqo9/XnJ6PdZSnWeOsfiZf7NKKSk9oiXl842SMc21NcZ1pwGHrawSrzbFZFLa/ze19v0ctFkLsfKyel/VTR13SzZKqc61uqJprp1XXkCgPjswGMEAId0DRK88CGD2378KUzaEhQCi2g6xirItPDpVBpQUWtAEOpHIrq0zBDUauFYuh4KoS1134vRjNefNmGM8R2sKw4Jrgke0pHxeTuQrGS319JZ6w/hqomIN6TGB9MLB0yXQJhCDymrr9X9GqJGnTdyIKoz8p9eBvPNUZq4DG6bqARiDVokNDMzZ5hi98iAMImDYmMimbJgzgVJR9WiJqwKVAG4xqBJQQpqA6Sha2ObZSv00GnUxsnFhJc9QMhVLzm5AWIsaI3Z1SBNKRH1JGeVeXOhp5K1TLxBw2PjAykRR8zJacv236zEA30zvsPr3qDeGAtgMKKtzOzRzPo+iHccgsAAwdXwgzZKyPVoLSL0PIDCYKhdQGhYGyorqh0viFYjSBes1VAJKhFuwFJrRrFnsmqmx4IPv2AbjSJ3RRKBf2ovXnc9zbCcKR93b1QYRLXgZKJ/X30y+/wRtXW+o6EIlYVQAVCbND2NduxhdURLQwrdb3XjwzzjW1Nm8C46x+pcbl7KgeecJZuwYwAGm6kMwoxC4xD12BEj0wvcBmKRkdP8KBlqA0zkDIOL9MpFQLCDR6dwH7mOkklLVrLKiWCwbWk5jcdXls1XWNg8cJnrT5TqqhaEM/IcGJdeYG80JQMX0U2NjligR9YCzT/LL/6Xk3FZAYOE1V6a7AAMR4HxoGRifh+i0MBtYrf0769Kz6TxtgXH3n3vVP7imoR3HIAIC9TwGGIN7zPTWzZIBGDYdyi+g7NKeWgjIIubV1Fj3WQDQMqgMzJBq1ASWViGRbZGNkquBYN/pmq3NaGt2Y/8DOxykctE7iguu9RZey3HmmAVSoRhpCHiZHmWkxXX/333lJ68fva1BUYeNtxLtd0FNKulP/xoHB/j7q7c1uK04nSe27pr+zaGXW12PkReT8ykXFxcXO6Ds3c3UVP0ABjiixwDUO0GH0jkGc1XGtEqWpmEhpSL+1aoJCNTpNDGoDKOd2tAi1rDDrjQQ1b68GdYC+/cEZjeYIenAwanRKJVVjWn2Qw06VSVHwlr7A9knzO6oJSWimZXz+5If/cixX5C3zrR6hQREtTKH01gyLyOfptpy3+BALbBmWTufdWU8MWRU7vDzxC2YWqecnZ2dLaaunSM2FzDIWjpu1hUwun8KSPTOgzRhEMzgYIkpXZrOgVJR2+EagdQaBbCZSQkdVJPmKMw4oCq4/3TmxgGb57pJQRoblMYGpdGP84j9j+tps21WW7z40P0zfNZrYoa+QB3ypKXHNSajwUsF7+RsdLqqxelqXiaBKC6U2semMSA+Aq01AWC0Nyj/nS7srz3w++EvfPvNDxLsbpHMlheSKrUywwH3Kyw1FMfW11Ec1juQprteqc62mkgeiqJIUBYXF/PFyXRq6AkJd1ZHk4HZzYDore8DMIBhQKa8dwsAotbN0ZqVt5otyGbOFBUVGwaWrvZwtHQWT/d8GjQOfzuXiygdHKNsZ1Aao/SI44Cu4bO9Wc+TzQDQBsqJ/59aAfUIJyBhxMnhtg+MeUTTM80al07tzXFyzRut1Um9pjZ6/lu/52/Vf3y2X3ftliA7e9lx6gcMn84vM/RZT1SblDBlxkZU4+e8hvn5+fmG6L59+669b/LO6aeA1eUU12oW0CnXPHR4dJjRJFl6jhnADI71ThUDEZeGFEAkUAmBZmtwANbTTDusUwYUF4bPZY/VRJezZ6Zwg8Dt5x8oXFI6OEZFlU0D03dNHYpnr8/AT6Wx1OOS5+SZ9GjhjTZ5s0oDBoimZ4JrT+0T0zipelrf6j12p3m8/3bS9xrtvlFqmkmQRdAEkjSoVRhp94ZmNbC+UzUkF6qJjkzk3SiyBpaWC3FF/hZ6bJiyo6thtMwS37D0bc2RneeYKT/gGMZmqBf4MlslbgEumWu7hybIIomjiWGSMQPrrf9lpjKg+JrssUck4/ZlOJgGoS7P/dswWaHyoCibBk+unkBKs75r2fXh341rucXv4owiHghremeTrqOIrai9qfqbX+pPV/HWut6z1JzGkf8MPfOFoW9/LXGu5hEogqH1dIdvmipzKVGYSPceHZGzHTijLnzG1X9sNZ9DmJ95t9uhxgNMRrnBzRe0ytV2yUQ4CQHeGWSUwc4oDB64euzUOUZiVS/lTfkj0pegrOh1fdDcBqAsK4NiK3UUQfgifx5Dbgy89ss+W1uAsariTYOfomBqJ3DEKz+TE17C8EIBIrfnQg411mF7SCdoTk36HrUv/vY7dDOj9TOm16CMwF1au/THxtB/os033/hcIbOMOZ3xPVaf9GN/kSTbM/ZaxswNR4z2WfNHMidQZm5GrQcp31oAA9d/mbFJBg9cXYscpyhHtn83ym/zYsE9DWJwdHhMg53RgzqA4kqqD9cZHBgcHJiTcsVCkBHJtZMDtA4cbgJZJiqqKgwZ1Yd/8Z3UEAhXmiFEwgs8s4sOZda2ZnObv6ReqXrED2wMZH2xp7EoxlL946d+ty/bfDv0rpqot7L44fCnvvPiSsQjWZfrv6g4HV9blAzBrum3GBrr0GIO0ckGXrwnIIOoTYFJbDdPGaTighbHGRPgOKIOjh3UgcHOKIjBMVg9WjLIWCK2rTLAWDDAEbvPsQUAItFKFLSao7Qgm7nGOmU46D4xrI6B1U9VQ24A+ObXafsbJ2zyJE6I5Nj/ERnrkV8V8ugOo76pnDiV4/MlxBwnCWfsgyQe5+i1LExS75GZo9aH/tH40teSnTe+l4qhJ1V2jTtJHdtrCFvU3KHFfvNOMnC3Qyk7NliTofOUiC1YyqCMAA9+nAuGy8SrCIPTo5ppkiba4IDvgMsN0Lr7nMAcQmgCiCRL1GGzBSBlKgEUDeOHVOdwNdtB3u5voCmB6gDoO+xVo7nyP3X6BqlA7GCzx7WujLQ5EmYkxB1Kfdj9idstb6HhZz++ZTqp99yVUtY5V/iit6H+rkQ+rA3O+RiOYuZAKRxK4qTUzjHQ83wYrXKifptmALAABlFVkwOV4nVIUzam6ZHSdBNncKxC1IEBp6EJMiLBHerUyACZsjKgSM0WgCMZQmtHtN3fIMVx1Gth49rcxo86kVkv5VntzuEN68V9+ftvelMpuOHYvWy7wFO1rGUGrV4ENJY5fpSxXD+wlmLaIB7lpFpvAzw7Q1ZxnCTo+J0praO8zWPkElDd3MCyQIDGqOUkY3HAmMUm23dgcIzBMdDgGJ1R1JyTDyNFRohEj9ZL2SYdQ57JAKOdCBgeghzB4PS6s+Hg7f60EedeZ7hNgetDr3Xi4rnS75qHIJFAQrjuke4MaTQynaA4rKp5mRXljC2vp9bNHINWKTR7E73W1hxX+Ep7BSoU2LGpO+vK3CnLA5kCu8no61Pv3IN0qgFeIYBaLJAZXV0fhqWAZYOow+wMP15MF8ARgeiDPWZmyIiku66wDJBNHUZFlStrXM5GDn6seXjQdn/47JxZzytUHxBu4w9ZRjSlOKzjrG+acJxFbfM2CMBAyhylNsgpD+fd4K1FQKv3KCjr1GP/2junlSO+HM0m0VzAELZs4pZsu+hB66jZuRslCyhVfYwON42B9XQEveZ44ZQ3qmDmtCAGEPU4Vkdg7nOQQZlUBkUQ0dP0TDwhphGokYdfs2SYrA/9JFtLp9qhicCQN+fAxK3iiMkhE5UeEmPFCcxJbHvAseGop/XNXiOklFs3u3WRCFnslgpEMpvdGSnvAuZlchwnCbj1tTYcKN0OaS2Ab2FWAIFBrpdhbhAoHZOxegdTw0Lqd+aqq1JTelg2VQIIEKwGlTGoKLLHmHMMDcKzcZ7ZVYzVAwVLt3/YlaoD05kFDhwZPqsKvYHxr+tp6gxT8zKsKLW+nPK4b91863pPB2XpZ175d21UZDfSPry1ww2D4ZFVy8bPZmKgH8hhswSlQwzepjpzcxBlLYPqwdBk9SjGg/TCqgTBWKMtK3GCTt0BFkbKZUpF6UOwAcNY2s7PcR59cjUIWDN7MupTc3Tj2efIUMoEZmawJpCNzTZ4Vff2f9WPDV3MC6GHtl3O2PXsN21V6DUK1EmctNhtq+AzqeBjxY2uGTKKDhDNC7Ten9ELBtM0LYoOMNB68QAqY5BFHRrYnSalAzJWL1PRwGLALfDgWMLK2nWHKdXUYSoBAwJsAz1uZX7LR+H2olE48ugrV31QwEjXHn7xRi57YSaB2OFmh9VmHREznKCep85aRRjmRVjR/Y1Ot7yWhou5oC3abhZQ1nWu+OP+QY90YM86bw431jFwSKTt0Pg5akeb5kwu2s4Ah94NRKWxSVDyALcAZMpavRKw+AiZsgMk3NCkdzRl918iUd4Pobx/gIFs03nsmMbhOTmzqxcKPslhd91VAwRmvLjW6wZLVXxmuGbfwapenqoxEIKDY3dm24V1VFqtvUIBoJGD457t6JaeTGglJVJzpJqqZh8vZY7ROJaxsySykCc4AEW7ld7tUBAVzehw3TRLGJuE/Y+AgcFe6ggMWNSregMwel0LQMpUpvIcxvfI/CadTUYNhO7D3x5KWd0wHN7NT94GDKG5QLnZPW8EHBLAkvRWbzjDMo6DeRFWULa80VofhBb1wfVWMGUksTXXy3+eiIF4yp7NR2ZdrWcZwrlaZLv16al1sQTM5gCz7RdegSqQxxish4WUHZQZkJlUL2RozUkTGSxodpIlkOg9SwBl5R5SEsYZzh9zHgnTSNyMb0OuhwLgW2+4+bn+bBMIoZlAOLx7NtR6Fg7pwfdwFBeakTOnYhUGQmpZ/ThbnhK0BQFAqidTsQHdvc16Pf534yxKjUApVlYFco5WE51DDITU/vL4PWf0nma9LkAOLBZF0T6tBdB6nQYRCRhdnTSDAyopL2P1OgYtbCJkSlsoUYhe16MtaKemfGiLbL8nH6mRoA15pHmo6Sp5BZPPSniPevNrtROaDTDsyzmwkY7hAQxHdIzK4GM4lOeGQ3oRVpzAym1XAkHldFIdm4oN1AZ0d1GcssLYSjwRiHDgbRzltlrqDgzZBInjJO1ufWMdri3iPZAvGsBiu3gBMCs9BaIqUMJmaIC7g1VGpvd2oFTGIvGtErs3oUkLwqFFMOIGBdD/dz+cxqLPzFlXTtJDChDqzDpPg7qqZw97oGc0A9c9MpiRYgNTZ2eDc2V48FRJlYEU1Hut1GF7bcoX/64B3V2gdcMT//z44YivpLbWmw06e6CXiQRwOGMXZuIEjoIDDTyQhkmzi21SOrsOBRHddTEAgSplrF7GwO6Ul2mNgpWoJozR6xrRdJqmw569GbTZ3CZvMCh7NGaqm7CCyXe6o481DA4/+zpyGgtNhLUBNzVIaA2bAjCN+89IVyIO5kVYURaG1nUIDbodMuV7svDfFcBcRHryXMaW4jj4TCj1kZJNslUNh1UyZNUaRxi9WMdwSPYCeCDNDZgt2sLA2tcJIrphdROR/LmGKsn02oFROpRtAlhJGoX1hNTLlHbAodgmAbTxLD8LajBA9/ynrQQVTBmunQMsDYW74cJGTn2YKlBRPUJO3HQJ81NlZ5/Ji/2HfwoYiJBAVIfjVOqaBm1BX8lzSVn3JDWQpfpD6rbHfudxl/gM2cCe57rBRDGPaNClpbHzU+vV6NokvAeK3IBisXUG/FeiOiYHZFCyDMFYFdDkADJGvc0c252WKJWxSHgHRjG9r5oAaSrIDn+DGQ1H3+9ckykxBZPDfAEwoMeG258jgwbCpICt97hOt8Q802bpmRr1nlX93tgwL8IycdGRWRaM0IL2NxXD2hAom8LdX2NsJnbiyRCPVY9SUtHp4xENao5SP5HRc6R0jWm9BwoDKFoGtFYColpT2jkoUcDdiT5mkGFghnqZxXRGiWiBlSCgQ6+dztkwWf+bPGeExqO6510/wSwpBUC42z0AfsAggTAU6MZHdpFpX/BmhxW94GkyPRNHrFz7MuKo48BAamE43qE9F5yA7aYp756EpS3KR8hCH2g0neO/9/CIB3Yc0TXratvHEO9ue8J6e8GYaWEwS7HYGgOnBuist6pqMizXwRGgKKWDMpPqRQzBorJMPTZ7JQMhXT1qePR5BNyAQHue9ZYrEQWTi5fMlJ7JCXPDbc91F2nAECCwZ2Nb1jVdwmh6mSUXyKprEluIJRDlL68ab2TEYdHtginv0JNAqVpNQUjLOvWk56bR1OMzmV2ENW0ebSQxXcALqd14/PwZvc+DzNADFDnAbILSCgO77wYiRlOqhNlUP0DvaiDg0UrIWGAlqlduAi6g0+qeRU86qBFBfl5tpCQUTHmnOzDtZUw5wPYe/ebXaqgQAgz5PRon0mv45tIzOTUeelkVrqNgXoQEwhmVNMProEE7zVReu9taI4uKIdWFrUu5+h/OAO9ApL/4US6rpXsjDNmgjtMIZsvb4+Aa3ebw3gP5IjBbLCouA8MFTBGrkUEJchlFEwYZq9cAFhsRVabUSpLU6wxMtmCPWYDozMpjbJtgGpI68uwnr1lImbxnT4pBlyYT5kjHbnrlOkcAzjjan+HCHsCY4WwCwzscHp4qQTEvgmn5GSpljSDVbxNTfthhzrYWiAbUap7420fSVH2GtG0IuKHGHvAyQXHY0cu31nUdC12bAeCB9ADArKdiAoZnjYnblCYJCMQ7OADqJQzMNaq3ACsxHXphA35xkL3B/P/PP1JjAh64gfprVDB5T1EA1qXJAfaDDrv3uWoYIKzzu7FpgwF+JqkmaDTuPSM9RkIYyIDF+QwvVxUVs2vWalJ+bQiLB0AYUXky1XLr4kzsRhHfRVVlE0ms44hOYAj3luvHO3rHMzIwDEEPaG4AnorFwMlrYT11YpNFspfGIMOYew/AAVWFRZJHeyEDe6QGrI14tDlSNCrPyGPPyRmuQQEQ5gsAz4yr3h52eSNfjKo7m5VUWl3CmPHs/fCshwZnyCFEqJnIbtPrDC+2Us4SQQUCbWnKOvQkUFZEnhygrLXyIhJDfCa0ix+x3puPhpqXCZrgJJKj9249dLt0EfV7MygmxWvg1BToENvYJCgxhqVGVZWVQb2CgQBWtMEBEt4qca9iYPXsCiDU/dmvyWhcbsZ5lKO4CqbcMw/gmekAh7T1N+/qgdVPssGd9VrB/MxIz9Soc0ZOnNiuYV6C3VhUnlWzdRJKENBJUg1aTduUhruFAQBRtdFI5cR/nomMngzZXVCR8x0rRoN5RIPiGD947OanQx7omgwOpQfkCQpgYKoKA3OSwhRxm9JBxhJiIAWrKhkYHAD1BsBkABF9DGOBlZQvE0bpVQ0wewsgyHZ7tavrBsb6s/OGysBxFExZ7CkAj+AArbi78fGNPKko2YSNjWAeyWWWqtfMsKrjSGE40qGlDm14BoSZtdh2swVgh+NM+TiajrBtO8d/5+HxUpAQjlQ/W1Olj0c0KEQ4o1deG7492DXEfQ/SfFAAw4pkwB+GwbFVVjy1y3DAjGXAlVQOGXREJFel+LLJHANcRVkLDIrPUVswVQsnQLGkAdgDsifSeTepgcELfIQbSCiGgsnh7hsoTBbB29Laa3bNnT3ck7V6Z+khpN97ZPhU7MJABszZrJokbmloP4G0kU35sDbYgCzinBygYXnCrx+vAfFd7FrtfuuI4hff6QLiFtkdvydj192DtDTzwMCwgOawopQWa6eooYGxybjuB1AgQ7UsyhuwypUOYFA5A6iCARRXBvBhFlvEO4kMWHGZUpWH0RqYUtXAgKowEAqBVpOfZXuSzTQ0fV2u+NwzEPff+AaUipiDfpKJmufZ5pzVdSYMMhExCzW5ACJu42JWZiM414tgew4UhynvnoSwlzl0cMcyJYppAmeQD+HJxvEKcwLTq7yACTkBjtFon1NeSSKhrUGCgVarA027ihmVNYvy8XQxckyGsdW7uar/V6BilgeIYAAzNlgpS0OFLA+1ydJQzXxD1ITm2G67rc2orUKgfJand0NxAVq7lBjTNE17bHBwcFTgaAZCStnw676YaHCgK2b9NqBqzAwxNrj4BkirJWLvk/2K1bEMZ3ZBB4j6VLNvWniZSDa4UC+pan3hJtmJ0ZTK4dAAch7yEHfH1IFyff/mb4snjCY1USmttCUzL4T50csz0d2D5muDJHBruMPqgVYFAdJVedrzIV5/8Q/plMZzwPlfKz026FgMbK2L3a5SodKBgBkcoOLkxCPYuSJQBQwKoBIDV5xL1x07ZfY4gx4u52EMFI/BR19aX+jqaJoifYG5AH+oH+tSE5BjMnB1LqWtp1Om2T2PnfeVguIx6BpzGaZHY3i6a999n+7su+++T3d3od2WAI5ioFkY0cTpxe060PBsX5FZ22Q0wwCTNtgD1FIhdeWpTC9mqQgpxUs1U+CAbJiKoq5gXS37wiY5tztiyrdCCKbU3TFPBKdinmVVFp4wbvmdPc7HoB7RNNj+ieEZvY1I1zw1l8SAW83JBXarxMDMNbCerqoV87dQ2XjC2fIEORyZznqrOjDPvF12zYQauvs47bykQhUwYBAYOPhZdLIo7+5jtmMsFIdxfvqzrEIkdEtNXG+uo2fXJeWlOBaDrqFn2XbVDMqbR83DBlAcBl17nm3aIsZly5ZdT1/j1/g1Ljv62c8QkQ14mwJYDb7yc5lS44MVD9k9ig0wOXczwCg17mGVZN1OSyUTQcxqTZCagGzSkvO9/awHdz1Nzgw/hClvh7WB8mIHE+rKsAf7EYyWWIvKqRRZ0YAhm0AU5+7ofWkEWoLVDAS0WsOwoNUapvSwGbtNsqkpqxgPnC+PHtarJqgqw/pcmiuuXLVgDpvakyUHFGl4D5CB6+sZZxciEB4/ZwRQdQZ2e2qtyEhqlmUZb+Q7nwLHYGD1M96uKqFKG/MYOVMAxQAH3u0SW5ETZ1b5O7/yycEVmoALQMAchi5s026AcIW0zWQ5G8DDJHSFDxbHiaqFnoxPCYYLhUwEN0GoqKqXjero6+BWe/nyZnGLdjum4hx6EgwgLGrqASD2j67fPCgHZiKuyZxwLrSRlwlqBycGz/i1zfFGEgSdgda/C2h6dYnOwHke2dTSPJQ96esAjw4f1FI1oK3mwrcgqwYmnM9+1SHK5ADgMt6AD+PZh0g8Sh7NCsWUXXhdggwlBTCrLqOMuGfWZbnwBx2icN488nNYXKuvMNfSTKw4IvryWiRwuWEgNQiQL51dRCN0xbWazFiJDWoGM9qRkgCOEOeNI13AMhHScvrldU/XJNk4zHo3ezE9a3H6JF7OOKjdjG0YQDg91KA9GBY1d1TgWaye6/9vJeXQk40fHv7H/kifjBzxa72Ohge80ZbSQWK9q+WFozTHgCWcezYxRI3Cwz5PTjvDIsZnZwttiEVtd3/K9r2HCIA1eQTI2prXpHsoQpO13VfbdrWII7uGXiv3nkGipexK2yF5LEJbbU+1Tu4gKpruYz0HWFRv9OVdbnJqPX2Ji4pNA7sFIcDhdV0suBHi9LJtUQFM2gZuANAkmRpwwsoE3wBF+DDt140LvyPRTRD6Bf2rtyo63qNdknNmY855C3ealG0tTdcakEUSE+9RLo/1/fyEf3OA8cHB8h1ON76EdVBuOHbPGR9gP22sFp25bc7zTTAJDLJxPaxk1wbDk+drC2OToEgGrsHlt65FTU04lz1eclAlAxjg07/MdC0qW8Uxj9cAVWNIn1FXngwlCZuLaBvAVdn4D7f5uSUiStjzcdICVWNIv4VxUE1EdhWuulRuGEh7CouS9KJViMboomsVGXgAWNqzgJZIamDhr8bRPQReRkuFlt/ZgWxcfKMyHfcIs7Ax58zW2U153yDMMYMwIpEORZD9KqkJnmwcv3CCUdYWMlK00ZlTnvCHgLWRDurQbA0Do3rIud82HmpupWexp3hthKkGnP6Ery9qbmWP1e4AqAIupyvpazIiquFx2x1clYEr6B8aLBItdJ253ACuBnQtrjTjFpHwo+XccVUGVlxFIGqt215/wGBgzkqpGJZdOLhBwj7X24IxTO5+6rcAIrnLqCPGi3F5HJYIVQZn9oODUAGAmxBQ8OJlPuplbwI5560oH45bupZSkdgEZZRBWcGJJcbOhdrTiQqQFTgpow+l3n4PktHOB2mUgVZrWNmMc+Y662NcK4wfM6+fzgIR1aBrzCuAaoXZjMd9O+PpRJkcAMzQM3LNRVU+cx7floOq2lq/tGtoBiLhonv6/EGqNc326x1SNIyXP+6zMUbRgCOueNsq642osciuu64swAbCoYBK/DlcVPNpmPpSz9QkNF9itlKDSbCmqDP8H9eDTCSRFKwuvH1ENi5UNFW2ruO7IAEO5Jw3tJv4uNSUyglKxF501+AqL/BkNI3rPC92o8BtAnO1AbfdzptySHptxWoBA8PqjD6cQSL0T3jSrJQHGYsA7H4JGxK1N3r09ogYVAHD4BFcWhcZI6IbvZr2QEBRDLoUF1lOHvA1XoEjwJEMU9eoXyyI6CY8fP6fgKIYsmuefUZJoH30Ksq6AESprvp22XLDxL5WvtA2i2fpbmvpSCTdYeMFo9UtEU6OQkdQOgKZ4CKW6awGunsYi4k7QM4tZHAIPQFkEAlOoPLgHqQj4gnbg2VFClIrHUKOaVBLXH6fxNklvLWXKVnKS2yqDy2QSHO+5zEQkQ35ZfeuMkK1w37o7cmeEQtVGJgEvsYL8q1IVGtvwuPnTAaokml2/kU/ietKIvEyV17rAEcwkL7UOKJaM/F5P0wARQDam9fuWQIkrjdXOipxARJl1/2DUhqn0ulTpxYB0CiJ18igEsHVMSGSc3zTfSPIBBcv9YuqoxcSOBtzzjfv/aS1BmSRbEf0Ht2DYta5WSZsnbiu8rXfHDmmQU1rZxw/o+KN9vcwrQ1zniUl5dN8kmyGI4HW/bMmRRJNeKT2mJgIGPIL6xIDMcBX/sopzKgDI6ALzSWVUQeI6ZcS4EpAdvm51mSx8LW9/iySgbtuMRmqHTB4RW2xBO4ZUzk/4SQ3UPBJx85WwB2JxAeWotTEV4uaFyEtub728vMBN0Got53F7FnzM+Ji87yGuhvyt74T5ZPHTy9irW8nCGMxoPT7WWkEU6w1cefnvyDDaH83EV/b4SYp/rqeOCGKwRfftlSGksDA5JInYbM4gkFb8tRrKKYzbE/yrDQogk562lm8mgPrAPSLPSRrElmLLlkmBkz3qz5LDKoA+tCveDJEMscvvQzpDWCwnLhIiYaqj50OoFGSr6jFc7oShnwg1ZXDMFFWDpdW/t+r+ChgSW3ekP/CWdRbrQGvd05ZOStRSQFWER1rl9tFmBqJ9LDTpYOBlGyCmrMycW/Gz+AYeNr6oJLhG2Be/GtDTgqTT/L28HZqBNBV5y+8PiaZZg7nsJ9bDorytOvKZIjqTfh3Ps9YBEN6QX26GaI+04uucUXz93AjIeJY/Ik/fotiSPcaJ7G6CldZM1cRgLEyys+2CjdYll0pPTH1GXCESEtlbp+z4mWmzK6/3EGyQcz+U0EO88RDNn6nr/dWl1lUEOCwKVFRSUnEMkhNHhRDeLJx/PVOM5WNxRRbxZIeRx/FwTok1k5uARiwHtaWm8Q6/K7epNdG2CpjmDWbc+qYEoLVeWw7BlCJGT7sivZ0K0fEaXq2x3+d1+Zuq1GJgSvMswiLuhTZiktPB1zGbo5eQzfJZiDiNHO28390/9sAKjHwrVxtQMmQyG67pR0BEuWbH58aLOjv8c0cVyeKOmK8rCtUMZmUUCh99wnIxkUQKYsKgXjIQ8h7f2sVdVkQnHLOgMElUhlASXDEV37Ln4cnrGIhdaKwSMkmgHNk9KnUAz1IhEq724C8WZ3NjJOj9uf96HRkAQaunKudJSYx8L0/dnaFzmgZhp5hriliY1P+AQ9llDHwNT4L1xyoE3D3t/AlELHTPqEgZuON6nHtTHGZgUkIe7VJ8vXWN7IYTPn8fHqkRcO1ffrw3KkPAjjLysQ6A8yLIHS+thRcwQFugtBLFfWoow5A/k4/aQ1yMxtVoSCTAWk9jZUB1S6x/5W1dl2bJdaKFVMfHAghrLV2bcZv6V82sjYaLLEp4TyVkWRr+RM/m80wgIHZdqmzo5QYTHab8zULgcGXnovKFvFanUflkUygEusS+uwCok6Fhk7vAQwYdOw1BhQPxt/P689AYMgOufqAEiN8tfnyAJfRJjzGnInGC9era9ZBdaKoxZtGqzgCwj6Fi7+mcDJzEXvJrP1en+frvdXNNa6HgEO6N5BBpwkoUxlQjVJa/vRy3evJjHgyEntvudIh5DZBLfFl7KINB7T1GIBNqW+53DhRfkT7DUyOWYC7l519RJLth+JJ265UuO48g+Yj4jb7PW4exiqw6gJrlUTdyvxirw2Vw23biLjNF/jo9b1XUPvSt1Qk+r6/Cir3P8J5lKXGi7mMbWhpfUx2lMp4XXGlCMCS8xX4Ux4MNZMJLorWoRx3O31VTlOSuztwH4CMitJhnZJSxZfG47hy+mmgq65gmbAVcU30CjpYI8c0KPrpJ06rBmm72ADDlPUZ6hGTikSbkSd9zkqQBdmyi+xAiVL6CO1xSSltflkXns1HIn77s3gMM2XzZ9avOKOOEEOXWwLbkD/3xy9qaM6ejzCjrH7F19EGoASJ1b/1LUdgINMTav3QgNWiQ4r6cdg4k2geMRxdH3gXTEJugqP+dpYfnIE/Czjff+Js9MUGsjLCoEzlQDF5gsKdxexcv9tgiq3DOqrf00ot4ZgGNUs8M3beRC1tPAgwbACBz8UbI+n29/M7FRjCZ76VdU2igCdp/86lgLMlT7PGa3SG7Yly5gQB2SH/GFNXkO1z5WSUat1LitrkH+FPwSW6Fq+3S9KLv7ApVf6k5++8oBHjdK9x14kGNI4Z7a+peREOiXXnot8RZAMcr1zvdXikg48U4JBzCVkE0OjU4FgJKB70kCJ8rp6/BSOWATAS+695qvUxO/hUJ+61dmr3W5ax3B4DAEcYEOCN85tHThq668OzsAN6E5ebrpUorPC9/9xGAJY+Xd0kd02U7vlELQOYxQXXSZlFfYeLX1szVpK+5FCGauJN80fLSmbX5VQIJUro47+JSrKzzxMuqxED01fIjgHXAwFewf9YAqGas9T1A+cfEMFtxKwsR1mPKnwGWEzYdAsyABkZYHRKKgE03ATKee79m8UUW8cHPGeQskLIyAm4XqN/tj2SBKu07SDApAED2qDOWRuZSbrxs5436XmogeF/0eZTiKQbvvhHbIC+4mdSblFLq/gZPYIFwUtdSCDqWmjdSw2XHHKTmbGopfEj57MIsMch17wJkXT957ZeDKLuq7uWi8asdjjUoi4VfQvxZlyqh9RkfIpCSlA9F7Jx8Y1WNqMO+/44kCFlBIYMQECTjgEpK0POeXsHS3jnQTJKajwZiYp4p5V0zJDbBHBytj059eA6jk06ux0GAJoAAlh6jpxZVuLw2Jd3ifOnwjP3rrQdi5U0zHfwc1sjbvQ0bClEbc2f6UlsY5tk1W9nHaLORX75us4It/95boraGj77/YLSZ7u1JRIu+FiP1gDZ+c8dTKO2+OkMuU4SCDjqPe+HnghpwuHinhG5CRKPKHR97HVCOMwrUAUyAFFqGWD/mSbK5rwNHxO/zSdUnZeOsTOpufrIeXBMUyWbuD3jN25kYn5SGxpgeC0gEEgP25bYycNf4KXt53Nudrrm9jtKJergwLO/Hmn7aG/xQ15ZJIBz8CtbPvRTv+q4/oB7fJs/7KIVH8a+1NwsPrP9yjaqhae/CZF8od/3/+3L24ozrMdeG6GGDVvkiwz1AQ6Kw8bLxqtNsUwELQOnNg5CDrJx4Bd94H9BbLpXgoEMQCVgZECS2JgXW0zQ65YqvzmQliQjTfZKqb5BCNsVSIKOnTWRMdp5DwBT5u5nqzPJqgvP0sW2XbNFp4p6NEyccdu6hkDU2jAxMTQEou4Fr+/C26f/Ol6vUa0w9I/cfJuhTov/28V2lzwPe/amkXvwkOoEnOCZxAnen9GTSUvO11a/5hjchCkUbfXTMTi4wTe5sLYEA4d1AJUpNaU6t2Bjzpss037/+Fov5w/GE7bShYHKScM9kNsENSZuSu1kwVv72CWlojVx7hZMXZrFWwiJeqHZAVF7U74XQLDyunMLEmnKqw6kUYbOqjedDVEDx9OHjNRNz2Hjcv+HKZkJPuX6Ny4RSTZprln/fi9JdXhHIYc2LQOGwzqAKgEWPre3l3Eg56zleHzfEOrTC4onbH0yWXV5pX5j5Bgbv3nsPC8Yb7SrMKAymJstl+pDkLGtWhUTUNdaDW8Dm2IauldIf1YnGlaIo0apKjY2gRTrltBPJMoEiHHldq+j4+tKypBTUAUO6wCKAnsA5/b2zi3YXMGtMjzW7rYaOTjAuG2X9bBPdo5YB8VZjl9KrZ852tIlvgFR5U24g+362K4yf1N5gkENHa86x2w4dULA7qsy2QOwTCYp6T8PrL86gtuIWa+sXj7q+TPAYgJQIMoaOKwDjHaiAA753N7euU0oZvpeVVbO1Eh4xXTG+UWFjNQcs3FyRi86C9YOpTbRbnmeTLAdsqxzzVs4ptH72DyUsjpZRhfijC6FIyA3YYpCTpApHLLj6m+s5/lGeAfz8YEKGDisA4x2IrnDROS9v/AhGbpykfV0diyxdahJpdCJxEJuZOoUt70yDf/ux9OmkyaiYMGv/ffu7ZCE+t809qbh+6bfvvsJ1YemcN34ZZxWohFJVJYXiMjGBYWhbGqwfl4nHMaphIHDOoAi4d5NHGgv7+19SC++ak1dA56s9teV3ugCCNug+2s3zvgN/ctG204CnQrg/BEyhrc7Aj3weXI1fJ5innQ1s/qYbPG6cXJLZJPm6D+/+Bxkggv1sqpV/ktUC7N0RAQMHNYBRjtRQHJ3J5GrQPUg3xc8YSvOFUq9jhnuNkFJQo5eYnYJb5PSlEzKZdYOAKOUFwqb1a533w5JaPmr5+HIaABfqC6ZHnN9NFtf5ly3wR//rv/v1yWkc9R5U3UlogWZ4KLQ1c9GdXAh4BPvpElfwI7rG+QO7DU19SCF5VNesFG42suQ9ThOgzDEdVykczWbuMPaK9hvXaPFBvChQUZUNNzgn7WFutZ2RTI88LxjNYC86oJZcajrAsPM/33Z4Nv/HEMdcq9MuheLQxPjAG6C0HcunKuo2bTw0+EL2HF9gzT0ZraM3v62+IzNL/IlEzhVhf8KpRAsNfpm7EqelmFMHcRKF89uZq4GRFRd/d5X3LXYztjqvmVDg/in8wxJQ300W82f4vr//RNtr8NCJkIW1MlWQhPRGrJxiCfO3+r1+9cV7K2h0LQvYMfuHqTMPGWp1szJv19nLGRCJXucd1fpOA6ll8nVYf/t+AN5twetO10q5JKeFACisqG9+WqL7ZClN5lgNYQ89Ky5UwE0WwwOlBmtNDxQG6DzV6hM1HEU6YKll14VBdwEMSvL6hXzvu+RiFCYoS/gbgsPRdabwTLKln9Rz9XoIVvSrUNW00Y6C3hk1a7XGMzYpaphTBtSickBgENTQGNUNtZNfuuytjOSdU72pmG817M+08YkXjA3zdtGO4k21hGUrkwKhyqh3BgmNi6u9veznmm2JPNF4ZvBF1AUHtLQaw4cdmx7to23p71MxsNypHaoZUmJbK76YkffTMPb/dZtIiXNZjYATPa0FBARDRQ3vafEdsUyE09J22oUtT/ia2TcOK5mq0QtlQwPAKZZCa4dT9bpOCReKKDOO1WJhGSCUGHpFVUvG1Jm7AsoCg9p6DWznNIw3PpSk1oR92hCOmzz3+Vg/8R9GbuN6xmtnRwAFs9uhvXWfYjuW25++3TFdsYynI8/rGkcz/+QQiEPwx6tZnWmts3C5SaeJ8VkSFDAvtE1MHJBL5tX60XwuxtQPwN8AUXhIaXJ5RTG1xlL4Dj0MqGSGplYsmJSUnqZXEk6HXu4jgJdmypNQMCBM/EAcFwBcB+qzL7ri66wHRJk+z0RKY3j4QMvysWYFWPi7chTtTAMTW6Ux2ihc+dzJiATXBTGvXwODu9oPWbuCygKD0XWm2o5ZSmhnjKapHLpZciWOEZddpgVSo9org5Zjp9L7SinJ9iuMXUCQdAAPSoAEd3gi55F3eEDtyuS8fnmKDeQoHihayXFigdq08TiQ+OZOLsmpliNumdEMmGKfnhpqFZ3ZIGkL6AoPL3A9Hr72+ZmPL6Ie6gRh+SNbcEjmqotfcHxsySSB7pGs1nanAGczm6AiG7QVbjr+pjtjp3t+uZAg/myeVaGAnXpHKssEi+vw6p1ZXKoG0IvRwEFbpISceVmr+PHRLgNEQl8AUXhE5BiqhRHnCjPyf/AmYVMqOS/J25HdByHEtFs0QnsqY5fzkdTjOl7Bb2iqckBwMVaQFQ//RMu4MDtjuRffbAaS9MXrCsx19QaTZwBLDGIR3QMxJWLX1F4ilYIFfV4i6znKfyM8AUUhWfqZXDILc9Y36/RQ7bEoUxIWQ0bWSnxMqXaX64Pnv+jdJsJKSFtxgNAONSAiHGHqw6I7YoV8nPzREOj2Vfkjv9Lk3RTmqD8wFGJZD+V5b17pSuTo5C78nQkZOPixfu3++p1TxlAc4+gL6AoPCSCPgoO+1S2jTQS1V4m4/FnVZwdrllSIupBv9PW9yTxraNiNNkraNoAh6aAqNbg4lJr/CEHsl2xLL/ZpFaDifRlvpfCyTKl3jmOHIfu/iTDL/d6YDIoPKhgichNkIhrJ+eVjbt3D6K+gKLwePorKY0WW1/EaUsPYU8EJlKGrS6Dlylhbvz+TFx/b2jdppovAOa2F0gBEWf3snfXWNqD7Y6dPxYbzRxoPM9/jSmKRJnSnqSvuIYsKCupVFZ0AqwrkzO7ePcOZOPwjYZ3XL3qPlVMAF9AUfgAqTK6kLF4HQMyoZL5Idg7KSkR9SXa6MvoI17PIREPKeBTAyDi1LqLm8V2xnK+/LSURvQl8wzICTKAi0AB6NzQApW9XWCvDILPD0JH4CZIy8h07aw/adwPqAngCygKJjc0to6RVJcIinDJmf94yAZKL9MrF+56/GLq3b3mga5JpYBvbkDE6gtfi4S2K5Ll250FGtOf2rVpJ8WUPbXHALzvYlEzQ6M6C2xRxsXFXHIBrYlPYjm8y7r5fNTI0rqIegqKPmikuPXqmUhexYGZTIBxNENS74TSI7qYqdb7M34fC5B7kZACpIcCIkbTnDr6spopxHbHzt+ScWPKB1+Q49JkmNI5ScOUGfMeBRuOU129BntFcAgtwe8JyC02Lq6bneFDJ4LM5V5kyn6fpVolp/y/SguXEzdDZhSPqC8p4/KZuEy9HYDCCxQpwHdLARGrOne65BLbKee/ERrV4z+Ty9NOgil1EWDKUzgUgJw7GJ7kV6FkIkAwvM4f2wcj6UK10s3/nWseQNoX0O/ryf+0nl3oCQX8B/kdkW2JcEl50Fln27kUkwgpfpqQTioAip07ZUScxr7SuvqStV2RmEP2cPOqVoPKO/xMVgS5ZuApp8dRsZica4KJClNJ9pDSlZmiULgSKjAyQ+94bZy1yzn5ut6kEJq8vGvb6tzn2bSwDjPk2OF6S0oZX5ZE9VM79v8JbyPKv/Pek0IxTZomkKIoAOb/7g5vcCzg9DK7kLGdscm6bxaYhvXTc/W0U5rQqRFpYSr/8qmrYKLMSIS41iXzMmmpaV3yloFANo7mCXZ9dIYtG7JduY80JLeCMhb15Sg+k0l9SGRXaV0uSy+kPO2q1OjHP7irJej+O+9p9mx2MvklL1aQiAuPXHCdJLZTflWHvHF1Pd6ruu7eBjUno6bWoaeIejlw2stAbznP+MwmRCUVweMyaA8YB1jnmmYni37cWxAkoNzNrfgcbn7Fq1eYSwmIpishdnj3EU2pPWRLBqPm4xa+++ubZ785/QBA16HsvWkTzCbQSQ2wjkILZ7SDQvuM8/ll2yVp5yYNbOvCvJu1Iqh2nor0FAVTX+spcp4SysRV1mS2hEyEKao0A5m/BzKBxQrnKV7XpyAnZhyQu3SSyyS49EJvzdG3kEGQSMHWOFuxgSyTKUlIfsZxyptP4csfPWXxiTHZQQO+meIpQvbCIq0U+jO9zefVsobtko0bWVjvY33A2LWrsphW83VVLzy2FQOsK8OSGwcsXyeCG7SaV20uf7o3f4bTc5XTMHfVAFfrMwZTZFeIJTbKVmygRNSX3Zh6J1u/QZ4zZYCiGVik1dJTzpuOtJ0SqKEFV+SneddUTpSftts9cK41jlztj0A4LSE0XhukRw4oZCB+9YTaJ/x4RxUqzNzLDbyvC251MDWXDiLioCuEtf4cbqKUXqbkR6wrMBrqtq8SCbo2RbuLqe3f3MnoU+m7faDb+1nj4CQ1me+6qwtGOlR3nxAO/7/S+qMOPhxkl76Dyx/xbnJPK0MkskX2iqcTYSDMbAVit0cjfkaJR7RkX2xl2PYaP/xFgn6Vl3SiYOY8xTkvVp8KfMV6L7gQKbgeiqxB3HTAued7n0pXBDErK68JfYnQUC3d43v3Kd+6wyY5rc3KCuMq3Z7cnoyZp3CDI3xZ29hdCHtIcFbXuXo/tc9yfTpSOHsEXl3OgOhjOYcPsd5rxl0nzJbnSzhSpcRL4UVetcwR+BAtbU32srf0xLDd3LfEIlSyMclj+607SQkzgXS1xyM1zoJS6kDVsubpSd814ik7A7LOmzwPP6LPZfou1/PbuA6gmw1bucBUEwEm40IPr0gFF0lDCP9LN3+tDWxOq7M0PaHDkzrMmPEKkZojHAxpa5RepvT7RjSv+rNGDI/vBAGPeP6YOX0wL847XePUh0KD9KLTu3GzPwJhF1eDdu3l+zNkpj16Snd6sqcx11p2ts/GiVc5aqImJTQXsDWqG7RNsJhHtKQcbtFwOP6F+LJLZ2oD3ja6Vt8L633kA6vCch1g6Lo6F5q0YrQUwuFrakghFLfXwks/5wt/f5h9uW8ZpN2rBjyhLzEIoSmIHWwiVingES3hJiN6t36rWvqyE2TpTeJmFn0wfTnew7okaX1QcINjNj0mwYE564ogKBrWVfoOgW8Fk7PD+9le/mZclnY0uPZtnnLcp6fZNBDW+XKYWTBEfUm+ppKxAGNftixLOjO7w+dn0ScjfBC8H7XK9aHwni86savKIO2isB4YqmH/ve213+85Xvzt2V/66T3n7QDsO8XB5QfHmgIib44W/dTgZUoWqpojplf/IdClM9V9Q4889NH0Ic+QabMe9UAiZM+RbB/V9FRalgxEoM/+sVNzWNuJeWEwVR9/vIPH4r1bhCgZcRF7wFN/q1tfcRO+xYLf+WjP//OYm/scMlK6NWeflGvHGDEEh+gEQfuZczB9NrOL5SIYXA8asjrmIef7kOOnT+mlfI0kPnPWKuo0QdPv9kS9++QlvEkKNz/app/ou+rVgG9xcObxT09o/uk1Dhg6TIMSYZ9SYK9oTgXMB51g8G6fhPpusCWvkWWmPpdZ+R2PPOk5cu6QCmoPPNE9q/vycjEPBIUrKX3cbr4viY2LuEJ60p+53Zkj+Iabx6XfjzX87/bZdYDcBnaf6OlThhzKKenM4vu7TtyHg6vz/BjXgwa/58KNffjRVI2UpRchKK8uOXmeq2cwRcifgP9eFuvbh5s4uEOqJ/+0yi5bLHTrh/8/jn71jJBjGpSaxGVdu8VKjMgHnWDsk688og+nea0Zp0417K4IHsFGL7g7pZZehKDUAll14oxgAub7hCHBLXj6ONRtiJhPDjfFF3/yX3jUP11BEs74ZnpeP87w31sXjRzToCXHuvdWIBVMPijpzPQrwX050C4/YhrkekAD5231EcQyosVTehH6/IjGibM+GJ3Cf6FH779XEbl3BkliccbmaT6uEyljnEWqIbd78vU4zf830mEalFCXuJzCNu7coKQDLfsZc4Lo0+n0aXMwoj4TIVXow9zjQS6fCaKXCqo1b4YGH88/YMrgifn2iRGqQPCWoLiIFddj3eWJvhzBCKY3U47uJ1L/nsn7wApClXN5776MOUo6Uj7kadN23w64Vp6KLTCuDwcWG3kfdSTDdQ9QeiHmxvpnQ8/8EIMPfCWFx+zpq0wZkOSb2C9Ynuo73+6MBVAJHvPZvx5tcy+QW8XQCVefnMIYC51pvOip5lj6fv5DT86oTw1+gvAQS31Ykbm7OQYiBLRIbnysl9InreM8Ee99ysQPjNHekXyHlCf9qnqVYHHqyevJu7/rlsCEY6tpBXJpf69kTQU1jxBlJ0B+qbwMfUDHX1OuS6gPNHCtRxnvMfvZUeJllJtMdGb1sfOi4TacfTzObgVT33aL1Hf9xL9wx38d+dmPPfz39sldcSGjoBHkeO99CoJnmFPSkWH8+1vVF4SDLwEwl3pg2d/PReo8vHiG9FDiJQjKHf/6d6If9vH67i3iZt5o97jgtpme/Cv6JbPbPPz/sbvX/ZFjGpQJx15adas1FdzwSehAA3vdlb6g5qs91nWiYd8Q9OFseuHdFBGIeFrzz/CJsw55Oc8+XrVvmAHtfxPdE/7FY/9CGPTj+P/duryJwjj3V3D11oB3lQ/KzvCKC2L3BYGhV8hNfWrZP6fuI47Ouip5JpVyo+j4DHX76Py9uvADd0Tk3iexn/EjPzb7/9GbVzCQME4H4yqXdbiV++8GJR1pPU2ujegTaj8Nl2EOUl2wzJc/T91L5hiCONFMiJQtHm+uhytB7j0M6IQFB7fU9zPe/HfbSuOEcVrWWG5R4vLCLHwSOlLhCvxCC/cNgWvxVFllVBcss2sIee8p8vc7wY3B1FtHsKDtY/oQ7LM3PM6MhXSqx1/kWPqM+hJ814E6XcYvJyi0sAdZhEpHRhZQg3eA3icJDMoOMPLJF477juD/6RJQXbCMp6V51+jUeDBhRwOfpKQjvew1TaAvycEvwrbtT0JHGnyhXBr3KdEzYKxtVR1qe/wCqE8JrHidaB5ITl9mB/qabsoi0LwPv/yXsfuYhIeBNmhex9NPn2NNX9M1Z2E+oHmdG906o+/pkauvV2Je1sAWfFar3Ael+8CD7XmbEG6yi+iD6v32JkPzLqDiAsF9UaRHZFHwPIxC8VpZJPqmahNeZybNq0gc/EaD+6j4gHSVmWf1ul/oCvqqqrv7dIY0LyLITr4o9F3V2QhbFPOqugaf1XgfFrKH59ol0DwJn/sO9GU1X+0OBs+LLHqWsvuyAK+geRE5WyXRp9X63HcLZl5T0pf3S8V9W/CqmyxD8xjCc6KHienzepn8agvwPAXSFs8bG6Hva/b0c7CYpxQs897qA+MTP/i0w7yEwJdne9MXVs+WFRjPM2B8dnanT6zHn2YKNO8gceitUJ8YdNsb2cwrymw5t98Q0Tc2rPpKvhlrHkGiJ939An1ldddnTep5BPA3sxnL1WeG8WfKCQjPAwitWrvS9KFd9ZoY8jwBpCfeq6s+NOa7PljMA8pKz56NMX1p5TfSNt72R2jfWepTA5vz7JHZti9n28yeGX1s3f4X75PK2/q2TGul+9rgE54OhLbNSeSr3liuPjf4YzzB4G1xSNcLR4o+uPvepG22xQs8tHNOn9ylF00Ab2sDn3TO7Oo+OeaN5DLb1gVZuJXUJwddKd91GuRtaZhF29NX1+Gp51pBbDuXSJcf7r46+OB/8RB4WxmE+Ssz9dkh+3wuhdhWLrJPuHtWRN9d7/uaZ1nYNiZc7HJOTF9e7XaJYLytC/Pat99PfXpc/L/H0bYviWxv07dXq16fzbZtmS1ym1x9fJx+MOyL0LYpSSo2zEigr69PfJ/rmwhm27QRt9ts6AMcrlCvmRO0rQrCUQeEvkCQptu2KOgj7G1f6iu07Vv8eP3f+L/xf+P/xv+N/xv/N/7/cWdsgcvJAmtbgGXhEktGBLLXFslllATHpCiuhTBybVTJVdl2UhyLauWiPXvSYseeOS64OXXvfP10uxvMFzjSTYRjUK9hxtvj7aF7zEoxd44ju/cX2B0ZOcO8/Ei/egXHoWQ5BiXAMakRpDJJtGKKrFokWlWpNCGKpabNmy/7VuYvaofp9ngRBKARjfzZdvo0/4orN8nhUo2cxdBbjq84adHV53M4eXq63Q4InPW//H2X93+apxz53b+xfrDq67X99HXnn9CEGdVkddYWaYmP3LVmS75IRku8sBVJm3G4Khy7Lj7R1RybHDj15qOVZtTJJWMz68BU5Txyq26ZFXupmotyxzveukjGST/HrGRsPd0zc6Uz6JFsJCYrrNjrkJPH2213g23Kqn9VRpj69DaCw486Tw5XLYrbXmtkaI122p0KS8/Pkb1Accg3cPSq9i3GyQM25SURGJkY2fVn9cDNyKx6mqUL2JYSDKyv9hwbrOADnthGEtR+Ni4lVTOm59m+Zj/iB6QzmK4fDirX+huHMLeA0eHHmj3UkJlV19GS62umZc3gk5edseYvGZlrPWIrDWzKA9ZTTax9L51dLbC2nmsnj+KNmI9Vxgf3txUXWMV4e6ec8taqkzeSgRtssw0cjhGkm7BidZmDp5dlVexy0rH77qskTD+rSAWwin7KW8W60+IJ9/jpXHp26RYpYKJKRQCBR2bO2p/CI88fLMvi8qItpmA9YHTZoZ/ml1mh81f/eauujKcvxidxUl4EPSgbD1QtIM+L+z1G7rw8q6NnsaeVAcbTjErhrbAHJ2jdU+noUI37n1pvkdXIs/Ss/JtV9NjLU15Di2cUNBFPMG8JE2rE+NDxLZKRjVrD89PvY30L8qHfwln0cBu1uWZuyjphxGHtgEsE5MXuorzD/BRXp3Jkxy0c3ykFDIjO3/hGlM02MNsWmo9Vcswz0DaONH/ZqmUndVW7cHAxZIzIwjIMCPKjDidGp4uuNCfMpy0wVR52y7RtSuWsf2jPR8hRm5DFg8eVgjTz6fQcXKKOU1PPLo696R0XkcpGzztOvMJd7f7gR8wpXdVJ+/WNl2Rh6PgZchmRfRVvlSVI6bgdTQyZGm9iy9M24ZfwEa0dtwX8EpYZlD9o9//5chqyo/3Bcn79UnbvHm3zhG/BKUwMuCb+Io9WwIAzY8oaZSN7r6GikInRIOchBNKCvBUo3znsJdouQdmS/eeYCTnlD7/VD1mYKu1sKKvddXUlDQUAk3YxgMnW/OMnqjLe5QqzwwoVxJutnT1UFO5mm/IHe8DuigWlIlt7/1t2O6asuqnqxyr2+gZOWOGAAbT8Ro6nVBmb8XB5ZI7KVA++GFdXMMhtLaZ8IL3tbRPEGIHoQdTWmljnEKD9ffRvuNa2g7P+dkDd0QVnXm/580AatyZF6T+hkJaulQWdmqzaoZ1SPojKkh+wuyoh5BgQogg4axfkU3Y5NDrL9VgZ0h7pPvuDK7D9KdemqAZcKK9VOHoLTHmRp6Y03/P2VH+Lz+RKsywEE7POkC2nUtksO0v2vteaWAC1xrMuEdWsH7Pk9R18UhYwZZXfe9yxgdQ9/LN4PM5EHXj8dRggL0xUF09FSFDyN9A2sijbnmn32XWoYIbG1dXs5ZVvxfNgq3FTKhMgz4JMbdd+uEVKxLyS/agcQK2FKAJGrW3GcEsqoaUvXY6g8X7tL1RuYvuT5aoIac2mf8iUik7XkynVxIv1V7fXM45XycSfjzsaUn7so+e0mKY+h+6DiNyhTo0257kXhUDU/LA2NRUjI29S7mUljdN3sUEMET29jP4uvZXoH6eyd29vtZs44vrZwLJPb+jD0OFvHq9o0dDNKDKZMHuyjLkzWovxb7cYJ05NbH8WqLHARcAgtQtg5rb+K7iSZq20HKbIZmoIqwyrT9unqI7pkNcm/bMrVIIlWQA0ch4OoNr5l5wTVgVqKbVOdjTQsp/UOfLANaqqdVjn/vfOie46kbfgmXhmsmAia+TktCYg7Xq7j/DIpBWX0HyD+qflaKQXtrSX8thZTIBy2UG5VMyojde3Md0O+Zo3k8eJMxq6cqoUMCGVqeH0lTPUJqrXyiVavuee1FSA0yADZDe4/kZplrdCObR0llwOHNoTk1ScOOqiEOeqrmqy175tojoTguWPbFTpq8zF2CeYms7IYWtnD1UX+cVn0XmzZ1bFKJ0dR7tUqToJ+1yYEwqZKvPRokYoy8+ax+fGKEne5fKWlsyxNlW6fWkd4t7IOkPtN/GiI0uK4zTl4uZ0M73EjhvUqnHk15A3ha5o6Eqps9ZBlNq4GduOV8v8cSJnzgtAEwfcPq+FkEOwMYA0HlxCtlMEfRvBFbC6A5V85KbsO+7qQnukFot+jkGOokzH96jpJ8iEFcXhpi91kk1tnasdqiK0d3m9Z8utqmi1W/fOVU2ddldN7zJE9dlhNSNP77/nC75yf4IcTr+aDMq+D6rf5Q9nJ2pgMBHiYWZ462yt+99t7fQ3swgcPC1gvEC8gTcwIRq6ylKTLghlABN32GGXNtEtSpcv31nEL0HazkxFMWTKKpsK5dB6ukWE6Oo+ChcAubpFeQ181/nBRPTSmcX1FzzgKIuITi8+m+cWKbV2rnFXB8WyNz71OETz2mYmesNwbdrdoSKO7smhVlPtIpt4Qp4nV2IYuoiCoTvbQnUe35xVCdLcdtCghQAjrLG46KbF/aeHCociBRClzY2y1dKT8eZlRDR409RZN00rxZ6eeFJBNQ6g/onzIeLP7BAsU3lmfaGhAlnWCRX0YaSOBTbmNjcdp3ot64/NH/811PYMIorVW1v4TS6479fVL6K2P/OL40ACddzCOKzpK86Sj3BCEdDc6dALejqkZOPE8aCiVhmfQyDLXvVPNpEU64S7pqCwkurlH3KfLDnZR4TD0p3WXzPa6HGz2r1/kIxbHIfjGT9SFcGUF/oNrnjON5sR0dgVqXERqHV64lUTqDoT5LveKrPiyuyQmsjZtzBrM5WzrOUyZKNbKy723m9JWp3ToJgcDl5hIkovMNuy2U+6/OzPZoioyy48NzVOQuZ2HJjxo1/3o2R5lN5RwcH56NwWB91mURtlNx8C4ed6Cg5PiMIFBZC30xjs8deBk+FQHH9L7G3eDtvmvcO2aT0pPmFZec8Qq9hkPj0AlxI5feS8pRxDg1dODVlKrcM+H2VwdaNTZMuPWY6o3ggRUgJVqiiImnVv0iyD7j4eV/8DLsZQqEoucsVi7XJ0iKBRitRqokeaESJ6+oaXG0wi5dRxgMevOt/EYyZXb2JPFPb6M0W82YPars367ddgAOl2b2C/ZHDX01Mjt4nT4bs+VsnQceFLlW3fXABC0InFa/QQmzizzeotm/MUDd5cqYHgmu3yUQZT/aFLpVvtJ2LNQhbaMtVmoR0iKdspuByn7haTDzjlRKoPy9L+WMS3mVJZGeMBGJ7Y+TSitp91vgGbZHZppzF5x33f+JMk70VENpS5Q9zZg9IUlXEcym8+TVllX+5rwInwrzeARqYdCy4uIJwIh/XaD9JsBwQWNRRrhohRkJ9l3ja7mdXY8brUhtyqkecfnAbinFq+8+EiRltkbctUK638AYiubiuUYf90N5dzFRq53ybMd1XkxRrFwU2XtSspmz1tgKD80YeIZvP5apcGEiraxO3xZW/i/FEv4iNR6FdcjCxNQ5YZHDJsuZotn4XlyPJfdp4En3hCYUjHibn4rvclmc22836lbVvU0MXGtK3qhPNT3ko2JWQ0egsAe8HaWljrPlwH4sxG/s5HmhhNCE5lqtfg9Q0cRdBd6zLSrJUKg3A0OG2/buGqKKbzOOb/4Qq5XNZsB8r0P+6MWJV4vd/KdEotZaGSAHTbaVxQrDG9pnkYug5ZRqxyTnfXv2I28vIPai0cv396ixWpUhwlD5+DK5CvWSbVLtxxHNS/jJhN+0ZOxpRIp7NsInVIFR/5piOqFlj7vVlzYzIavRNyCWuppVacuM1ItHA1WnO2WY3iwCE1pspcVmhjqu7kLoEPwxjA/Shafq/XsZXJVTFuVZfedlVK+e7JbVP+XGtvROV93ujJbccnlGUaz7tyGrIsuB0ck3ikuBfJT5FQpjhEt33U9rfffc1If35vr02Loa1nybGnLymCKyl/7YGI+QnLqLmXXE5tk4+nccE9L64VToKypS0IxXS2U1dFcEz5mjMWsVq8qfOCXRq/pqyo6bJ9FnntYRzGWoVoa17gSBGrAnF2QWFcVO1sp6CS1mHX3801AQOT6RqqPHzvS1gecBUuTuqvbt9rKJ1BWWV3TE3ZbL9HtJyIi56qTnreAwMhHjFC2CSnvcAPMpKreVy7veyas+90d5lxDMo+izX0mtIxZyTD/cQpukc9Fg8YybW0gwCaa0Ux/SZuuE9IXW6nMO0oWrZX7djrRJO5IHZ7n9sqCZ5jHQsg3EPqz9MixHL7NANUlZW9OfPq6KdBvGBKaU2Gjl6U0gxZkR0GyBU0sfx+InZX1X/k+cio3xd7GM2fqSBHg9xZFW7fer7L3Hv4jsFUPO1IIhbPVt9Am86Gt9ECVyeNjBzwte25K5HTfa80B0+vcqiu+wc7gN7TXp3jzHFk/SufgNt0qdqCi3PB2XfcJcru3yb60FDu2nj8JceNijQ+5mjdxbTMCXhdd//07g9YCI+7f4SCZhVykQow0YU18YbeDEzDOEO1mN5rXQoQcKGsSQsMqLvx3ErEL1ejNaKOs4e1b7OdraeBUEU6lCmafusfWyhzWE+dHCgv7X7nbpT/47eyKCAffxhLgxxJGjnyp7D94RmlVjkLt7+Jy2ffawx2tO6Re9J7KjsPhSFXdeKAG9/sFGK1/OXd8DPZ6hxq0NR0WkVYEjLVRCf9kHDYTim11F1/6yTwoJmte3yPACNAxXTWLbrVFEcSoyCbeJ43Fath1PHasCC+oYNXpJQ3XohGO6PHydJ+dxAJlqlnnXba0Wnn3kdkiuTU/ZHcfh17AUjhHqZy96fw6FDZ6VPXiSllcx04mjqC+t/YzkettKjaiOKkr/jgVcFR+id2pje9/d5d0txUnem0N3wXFA9Y47d9hjkkNdlxQ67C0ytOoZbWs2g6aKeT71+TsO7Wcu1QT+vfWiBjBBDGszSalr9ALlA1oOx2b8qspHEs1l9piK29176BqCaILFOqM83Pvj9RgFU/TGx/+LqlKWSZIsCibhZFm/N6Vhky7pFSWfnEK2aVrLs+Sw25HCL/EhbaZcTIvf5i+yFiNj1zyLOybtyVch4/tnoNrdwzg25O1ere77M5LaeWYcv5kLhrmmWfcErVi8hroX2flYDusyO1DZ/qkBLgtH//uUZZI0BqRVuZC1OtgWzvt3A2gwaynZqYHY7e11RrAtmDvsA7bAzPkZ7VDu8WZvHug8qiqD0R5Ut8el1FBcoWtgMRrVceobKmn7XGQyWQNti0mw3Kuy/4qVBbp7//yzOEyyh7otCbZjc+IAvOqTrLV7+57Cpqai37lfyEOW4V1XuvTZHi8w2NXnQLuTY+Yt0fGddugdONts9BZcAgE10bkiKqt/ID3q5ZSSNZ+Tgx2yeeRHVgvHz7/XgONfvQnlGrAIfJGSVVCuuCKhUfxl4mY7e2iZr/2p8QIvri5SETPcubM7ZA/2Z83keiGom/1ne9zAY08qgJVu+h1TsjcqpWdsznt4YaASc9NS/12tMYSJ0T/74XpU02HqjxoN/oKtXuPiqWZ64Q49ByG5AURQj9Yd8qVqJGEmuJ7eCTgokzX7P3Sp6DPfyYW1Ma5s6ksgrk03mFyd/6t7lLmvnklMjZmltlEbzu6HFXA1mW7fadfd6nkMCFR3/uKwrQyNdV0Jtm5+eUjDyrSj7m/3saovaHfFBzpzjkVSvj80V1XSH9Rqm1e7TvHV078Hj/kOLSyJqRrgCkSgZ85B/zVogGsrQ0i8faYUkRiNUpz/G+2KasKACOK06dzKUy6arTXcb3PHpa+dJ7pERWdu7sqQgz6kq1KpiqQzp1jva4bSVJdOcHGQKNfF0PHulV2JxFab4sVMVpr7oZEgnc882o5bmqs9fdVHF5/jewDSEfd80gff5pJ0CeaUKxeOTli/G0u3yNAEkqUzo9ZNFYHiVm7bLvtIkzeIjneJ2/2KevEnAxS3k5t6/NvmX0r9qryHYbClS5+x0+IiJuNccOEaO6n96TzRqSKfUX7q5+WWovW83EpBemyApTbTbx4FtlJNJH/X9TV4cX3XWVY9IVdBKaaaEagauyrqW9SKDDgg0XKAZ1f/aFPL5q1UzWrOnaIAkMGl/VT4PZa9MQz7p9pk2cKsZdB6nrTRyw/YnlgOu7yZmSAFacWADeRpeybnaLNlWq++88shPlWrUTsUw86XRRMrCuN4fv918ngVkzu0VuJeSEZdCuSrr942CSKb/ic42oOnTVumYRr4c2txVkL90DVeYHrBivCu/7koVrJx03MyJGp8pBIl21Kp1Y059lRhJmYqvQcFYmYl1x4rJArKlT6iGtN5g4hy1XBQ8U6eT+Gdgn7YJh6Xd+z/HU1eRrHgkiOv0Ytx7HoOXnnwNEchd+tP3LrdooY9ROs7ZIZvoNZFmRUqW0CV/EGVBC0PI3eEAcvs68EcejfW8r/S/bRB/bf+c31V6r7jjHJqshXMaujWoHYaYNgqqSf4eivMen23k+0d81iGZ7vPFE6lhWHL0oEGMWAqIO1eoFOO2A/gpACOni9YXC+OnIu1zW7rHNWkiVkr/4NYqg4hDHIH33x4gEaydqKTL3n0wIhn6R0Pn7hlBQtd/gniT4HNxlRDGMX65CPFyc79z5Mleh/Ils58flA+JToNoXzQ/+BnDNDD3rz0b1WvNnotQ2hnZ7qPDyiRHCjuuG3HBSnmVxLDp6HVUrk583DKXU5b2zXiB/BBuPgkNarF+Z0hUHk77klqttqnX3Dj8rE3XVNSqoOg7/hSxPVC0FeR5+34eCAZFUnzSuVa4q334Pkpy/ctfV4a94VTzpf6XIi0D0sfV05BfPo9oBO8iRNrAzWvt6Nn5BSORxSwZB0XSUpwwGjG1wOjQ93n+4Ds5pPDuEUJ2n95pPlUJ2+FJdtKlH4d6Aw+8yEQXwt7F4fxVLf7HPvK5yiDF7+b8YinRiCK4u/x3+7OkNR3fKs3DYEMyOqeiEcOz8aVGtuNeIk8TqV+6PQcVdcXXmmZgP065iMH91ljt/cvvA1JYrresfXDROOP2OcgJINzKq3XH53BFRjUGMzx/Ph3DjKUNUKVwcPJ+IsoQDRc8Udkp9pITewA9na7qK5rTHrOlnWqff3DHk51kriWr/7buiauU3znsDFaOHthcaEOUdZCVi6Ess2q4qO+CYTIniZv2qzul/jhg1/fd1XlClsiNvh3jwme1fFSifdbnnTzsYeK0USsKhD1IVJ0+Iam0jOV1BI9p2FZKKmy6yywmy4MJ2QBQZdSkVuXoDRh6YRwMvXjxL118/7cJUn+36/YxEUnFIm+q7u96P3tC0T6asK2i3x4pJosd/z22qFkceSbJ92jHd6vDVU6g6b861CW67Cgbe4IjlNa/ywYmyM9Q/036A6bYBwl2/AdfMwKH9oAoZh4wAKFrZLB0KDalOJ0RzOj5++lBqAGVBKtqpwYBDSp0UVq8gzmJnpxplu91oRpyrOk3cb0+iX4+2XZ0f0O0lTLW+ZaFEsGJfYpg4armShW6XxhBe7zKqL+44nheBKpdspn+Hhbjdade0MImWbKgfYLptSk3xI5LI9HhR+Wqz6IMmlMS5aEhqSI02FY1i/iehwpDZOHWKbEozT9t1IdoOW7AoS0Z3pBbQf05boyhactg2s40xc6XOs+p2+hdR5S4y1bfuR+8oqs6GQiKc3nUdqsr5/Ui42H6/TFUpP6k6H/yvsn4Aqhwb/OYPMBA24TYXtEGOzyava21TMYQTTnDNDGFxF1QmvVC9G1ygcBymmJ/RkDZ2FaRggRe2UoJMoKzyNIj6SKE45IZyAqRdv9zacMAB3QhLNEvLikm3XQRlVaj/OddEs69NrqrUf9bzo7h3qF65SKSy/TJluRRJdE9LGl5zVEb14diqXNx03+70ZDXahNtMCMhGHriJlsw0jxeYqPM/ibRmGPWYiLhFCVyNQdmhNKo1pWhSIL/5Yak5NACmorQ3pi7l1OBxEpldG6s23RfLs3LKFt/jZEO2U1dF0E6KlB+1N9GlT4s4V3bppZ0pEQ7LmmnhvJujSnRPm0gc+e5pDNkyuwp9iT91BgtXIVbfirJ62Pmg8wttp4Hoofgh93XNYIElUDmDqEpO75i6QaWwmyMIRMdDaZ5S/f3uIOokDQBpImSJGh/+j+9XiY4vbtE2wEGgNF2QZRHyibtkVZAOpdW5+DQz9U55SkLDquxBLsbHGckFLlF3tRKnfPcsBnaRopmvZi+volpt4M5vu6oMD91erJsGqvXpp5PIgX5KbRub6jz+UQ6ZxrQ0JSoKmZPnJBWkVK1894w6DcElibVqpAeO5IJMP+o9TGkogk1InWWV+Fn9Ul2F2+OhOuW7ZvTOocgS4lVpltsenw7dbpaVOJxC8rPDuzF4VUGV4ULqb09W5Q2856SiXrEb5KrChShcM3coNrBJELG7uOHfxDSqWOgyueRAGmYlw8Tqg29TJ1kI9Kr5jbuS0hsFU3EEwGlQpjI65byrqyoU2nFky9U7SSah4R5Z8bw5xu2hlDzPBe396oCJieoc2tXopge3C6rOnkgrXYEjX+W1kFJ1eut9VLPSdKONWoYteH95T7hCQqMqQ5Iy0rQdKA3E63TRbdO6kIpehp/+kfI97hhMRbsEF6myEk3c72FC1cG4Krr3ppdeuKMS4h1x2hWAi6IdyLt4eT3096squZ06WvpGQgjVjGUPrScxVImXnVhWncdfhEQWG6Ym5pJ593n/UjSoZiiYLISh8ZsXKTVOl+1VHyGll+0/l937Cy1M1EIlENpr+4X0Bf7F8hhyYsxnpnfKdBwJFcbpaF4CDkV7KM3X9NdDnlO9UxPZJ3wjGnI1g3oMW0nU1Tf7EdvRhCZu+V2fWDsDxQioBuPP/U7ns8INqV8+LqbH0+CFptae/vJ3qQeG5F7GqzfL/kRW3l8OXiJ0YeSLX+7qhrM4NNo7mTQpZu4A6b2zMoBJx4usHlAMhGo+9/b9qVob63ZE1hvuClfIlI10P80dh7bO0yXUDHBxPDU0TL+fvKOcTkN6htduB0hJZPgkPomh5Ok4TC+r/M4rs0gmoot23j3gGFRdkzjtXkmylRAQItCtVNqmLh1Hpkje4ee407fhqrJPbE8rik+78YUJlCrP+rvdQ7d5W1Sk4xdjF9fMiNAPiguLm797ea+ywg0o/xLm2oCRksG+n/vpidPg7DG9rnb/2rqRCEEVcAgT5wtxZmkMDvRO+TSJHc0A0qwbwVDUQwgxSJEcfsh1Ww/VauyVHlm7iqia2GNiGujm/VOd43b8HMbvbmDdxahdaZhp1NAmXJh3jQ880w0oQshCEErG0G0/xmuTtMEjTC+sG58p3SitvBsB+fs5QHEoxKD0uN4phMS4k2Pwbp9eVgkXQ/VQtOPoZorA/EtqukdVPZ825Zciqrzz/W6ab9AmdmrtON4eD5T1qotnRaiZIeyf1QDjL/WD5V3PheIGlI0Wt5ES4ekbvdGhhA2kvRL9Dw5RDnKLKKc97OoSZ5ahqhxmT69Em8RKz9sECEV/BLqr7OS1245hJCei9jm4TZV5N4TbrKbK7LTb/Ptmth59WtPt1JjKJ/x0spphGHg+I8VmvO97y3ucfRtQkmfaEYRUeRIIxed+6yJRckqv7NN27kYgvESopO7t35jicN7NqL5YFXohZW0lhsM+2rUlhGa3kvqvjZQ4L2tTfba8P4p/1EVEzzW2laWbcjOrCrIFZ8iKYsBED0t+PkOuGdDOD6KGNunmvIvP+5YhN5wAZYSQhiwLtfPQiTfcywnS1D3ondX9fnZVBOd5peyUe2XEqe5I5qqsz8G9UFZkToym/kwu4/CgrAJhX5KfLklj0Boc4dilhSPMaNl3NMfumar74NtT/Xlm509CVGuenX+M4pMqEV60FmAWvsg7lQ+RxpQEIU0lXCuYvu3zL0vS3CmiKBG2koFO+zK7qkSLyvos/kzEm49kqkr5VhPc+6gwiXW+q1VCcFcV2vsUiQvpuszVeSVRv5UVRNTz0k6D6P4ishj6n4T3CVdF+Ga+fByLDgJQpWLEoBqI4gPOu5aXc+PJjAE4tPst1ywsutHFSI5UyBG6SkT/eELo7jxBxBcIFUb2vDNx7ypX5fRaKdTrKJjkSvtlLkORu5y9aL6TlhUnEWM4Taq07983RMhH7rS1DQIOxXSKuyGSu7sFYiwuwLRiGR7OBKjE4EMnwDVA3uE9y3uRfUPDiZCLsu0sy+wIUojBQ/u8yAlOTJqaiurfMxGE1UoIR34//ap0y5G8TJY9eojZ3nSCqiJdsYLetnnLRMF++2XlmD0fq8pAeiWUNHY5tojBp1E5PP+ysQrH9x/xy/cgYLXfKya0U1YUjgLTioNlfxNibRaDG0iARNkiA5VIKJcUSQDZ5rwLfFC03XASUokJQVlaSfnEUOqqoDjhYzw2KaSmcv/9XpFkisQ+kAgz1kAoo+1XOibpyMJViewK6XWmnLAfZT9VCMWIyo0fXSTMLA1Ur/12j/DxfxJhssxO/TPq+u0lTGmm3DuGFFOliTW8vkWxcFg7HckpbwhHdEEA0vI7gBQF0OjC9vf5znEj3Ggy3VACTpXlAZfp7n3KbRelMYShi3OjRclQmhK1i5KR4JGRCGGxSxTyjNj3m8gUTSh/icvPdG8DKYn+aCdCBdLRvIzTY1c4WZp+Oasqdffuj7C5ffwDBvR82adwx54FiG6+Ntz8uNEAyNHitXd5OccC6W90fWWAKFWaCTDu+Jf9jnCbKaRI2qlIfex7yO96CQ1nD+QqAw7tflO6/KgHcKtbr4qBdJdv5eWK2hkIjmSs3sUm4ohKTC37zzr9rmSk/Dti67Vqa51u9zYhUVpzQK4KpM+bl+B9jlWi7KWLgqtyurNcLqx7yVWLgXwjK7ae1EB/9tuenixg7gQAk8BwPf7o044npNP3yQGBDTNtCQg1xxf9Yt7+eXvO7TMiBYUUcfA7xffYeGKyS2Uz3s0IGjntAXDK/U4cCtXBSTc8xDWTsxB4jtJrXVJTc1qgorozlw76K63aagUPvZ5CvUqWjZPs/HOZiBDSw8q1N2fISVJxw9RUneUPQOWyffYaQ8e/6PHz28526qp/aMcCkWzt8CnGJDw9U/0CCWHnAwMYn7iq8+B3er7lP5skgTBko84A0o/xHeSDp2g0eQmDrgCkgax/M+4AeO/dM8VBvjE33q9Wlp8D4eTMrpE4W0kqyT1jmyxCKgNa84KfmHqTQJow337ElQj93QIgW/PHPCZJvog+BO45S0uy/XtUQQZ01JGUd7gY6xbn0ng7Z2bNnfukaTDghIV9Pru/mRWHBdMj3cIg4AW+yPVk0Jf7FvMVCX477z/fSgALnN07vdFawALu9/e6S9ZYwmNZiOK08Cbs3Q9Id1iZxUK+3xef18SACp7jzEbG5drgww/InSGHngnBVOze4f+5n3oPZakTpiNPyYtKbvdPG6B7zFtAnhxvob/2xVHa7d6TM2iOjXedChn8gMwqo/kf25Js8WxvTje6a3u4SBWoz/BHX3QKsQ89X7cNYM1t5AXZzd7SOUAAx763OTpQtnuPaasEQfcF32oOV4NpPY0pREB5dq/llF2+/eFZLFp+5L1qAhkFz3GqpXuYWn/oq0P2oB+gmCWG9yCi8uf6g0rJWRQ2oTZkhZwsug+f341cAXpmp+kSTbzqq1oJcXj+v/ZLG2WBzP54H3KL7sRQIe16q5yKN1yUjYf/pWfVdcsygfp0fteXe1UrDgs0W/nGc70GCNr33SLdu7zNsyul1of7njEUBJq49qQCMCCr+xbxn7QaSnjJJBGlkVeZoOKRB4woDrTfHU5TfM5sFa4gM9VEvZkXEqi1srNty2fP/CBTZX74f2Q1CTUn/bVHXvUYVIMsBJNw3QXkCg7NQwtKJ95C9k4KV9QHzrEplaWgfK7d55V2/1oPsMqt+vRdrF9DW1VPjRpTt1nW+dT+W11iNYL0epm4pw3Q09Yc81bM3lRMv78//xDko+sATHlZI3+Hu9BgysZYXIk1N15OxPutzGNBm3Ln/WoQQtaWjAYmlePddlKPTu3NyDZkOrhG6JRNpm1TtfI9n8xOSYa1wwst84/4xOxNDdUm+Ye/mvx8Uiq7eNCOoaT/AW8Sm5KQRf+dzWVHQHbq8S008o9fKco//9Vt6AYpNKnrgR67412//OeKByxIv+uXX1IYSI96s+cVUQWv+0DyMu17F9OuAnSrt4OjGks475EqLd95U4ja3fnwrmLpnp2d89gUsuA8pNnMbfjkGxzfXJzOXmPZeatXw5ia73o2mzAxSnf4pR+uJGifH3Hfdnffp+NPdr/45NTJ4zlHpiNg++YGNHGzF94QJaH9x79hMFUa2PWBOeUXPX9xNwO4rvYv7D/Jf6I/JixotUe6bZyN/HruIhHxpj++Q6bHDZiIgvyz+V2uUUNpYKaMy6j/lM3IIrF8524WB+Q3vn1sKJ1cvHSO9chbu+uvsFtmUzAy1qu5bWqfHdNPrNKf8U+2q2pmHftUHNsm9SEv9EUcFVtm6tBH3uvlonDz/h2XAqj/63vD1N5+oafTtKleIw/Ym4pXsPffzdn998eDqe/11L8In37r86OYsMDj3eXTyp/zOSWihs/9PSdFYKI52++t4nmyhtKk+1PKKxNVHn4/xZKbL3fX2MI/YYZmb2F3OwCBsoO9m36QW7hmHLDzSNsxIH4pL7uyVk73es1Mp+C0f98f4rNZrZgoQh2o+6j5EGZRiDCafYFDgdLsDbxyrho5/fJfk+YHqs3NkuNfNS/noU+ix7v5DD7aUIT6mmt3GofxZ8pbNpliwogw/n0sv6cnckezPhD+T0OWiS7Qvd46dlYjCW9gu6tcjLr9niNxKO2ecpuJmDRLhwUOvTd24DnKpkngr21kVRoH0t6PZbfPahK24OW+FaUAKexzAb6+1bE4c6Auj7rVyxWuhLKpoRK5/3lutqtVCxc3vMn9X+DUECVz3mP5PcfaL/xmiopHn+Bu+0cdOcM6rnA9ZTNlOf0G/ja/GGobhvrn2gJmtIMigd87vokArsYjo49dbzMjaiQp9LdjY2T7ia6qykJK//1ulceDIEuP47CdvNTuxeQIx+0WErAJj2n/oeA4oLvyzq/4UBaXkW99MfZxoFTj/e2Dn/uLOFIxCLs+lr/+D3n2JarWT1qAlKfZHn+ylTW5Nje5KFvjLCtOLRH0D+4/eEQxQ3NMe76wVcbpN3Bs+krfOePqfnrfQuq6Uf8iwIdcbF4DuWKzBMV4M2eBqrnr+8Y3ALgK/mypfmZvQdFINrnjY9cHFK6q63bIlt/4SMWDyGQfl5O7kHstU/mwbt5OAA987m+kiIesf/UX/7CGVZ0lH/z6dlkVKG+HPOzzwfH5HaAYskCdHnOXZ5n7OwJZvmOgPww5TOz5ke7twbFYLN/2NXLIuHCetRdb6+sIrecNpZNHmB8g28CeVE+IKP8pvK+k6RHX10vj4jc6snzILpOFBEghCqEQUFwkW+ZhhviNUNhpd6iG9GN8f1hicBXLb6Tlb0u9ihpI4HWKjyPvvLwqhWD6N+Uu/YoHBJDq5lm+0DYceL70NhJRW0vX7paEkRN+iK0V4kG5j/lUjsxkVMFl2of8g06fPYWp7GLEmv/c/99TVBXZUDQrOdl//f0eyRHIvTYbKjDKZ+lNsi93DSiGkH7uP8SndRilHvmNFht6Q2EIYYDs/How5a2XfP/NpDlgxvM/26GnumQiqHYwHeV4DFbYnIO/gBqAET4iBsL7xVeSWriSIHvQOL7z281mlTWQPCbXgDvsPqJoIg1AdsydpXiMAIzbU02TYitBRgkA52mlkM4dEvkbveHF1GOOB9Q9/ss85/w7f5SJbi4sgtMdbzT/o9zh2HAPm8ghC+GQF3nhU1SNUqI6teXaqYwn3ox80DOfipnMDzI9bhYb7N/2ObzH1jGb2ogFFmCBaX+JX82FuLJm2ky5zBj7f413skz5/Gz2PKdUUPuN5qmd5yng4vv4vKcOnQNswlswp6xVrZzt8n0OhUqT2wxlwyu8jSPVoGwrDm/BL+cbMFVszI0CjLyBN7+WN5BAWS20/XKiZ7gwaOTO2xNz6A5RatLjMtab8Jf+io8YS8zkeu3I/RLgYHdDkEtQ/7iTwLpfxV7EruMPZfkpayZ+lP5sykvbn8OqMH9dkRUPkonskEM44UV+EbsqmvKhKC72+hFHWNiq0ehxe95ZgLz9C77IUAA5V1h78trWrAV4hgZkZ+vp+Y46u51X57QD+qmol76W/bAHH300BRllj/8Uwv5zzaGCwhO5l6Xy5vwGU+MjevQbNYDvn39HncDH99i4M1orrMeaZ4hcIdsRXHJR9nqAVSPiwAf/NA52tOy+n5ZHnZ3yVtQLW40jS7Vg171z4QhyCADZmbjxpsTjjDyYUpNqbTZ6Kfd8dlL4BfyRXn9WO0xK/gUulEuwSeYOH7KGQlzdbXqLtexEqz/PWqMLZz+79ZDZRlOiyoBsn/4h850ujwZpFHxtXsaHccGpkZ95fqlvPmsA5L/Ra507kvkLLDQdCPlkm6jK2HVkze0P2O+VuhRDW2qXQ5aNrwq2DLLYwO45zsjEyPFtlyh/nhfMK/XY+6kggGxscQmkQ92dzjwviEZJ4KvnPc+4XCZfaMp66EPOWzuiDuBjfN/ZgiCXE/QvTIdHcXb7d7wOoIGsLKuFTru98zQC2Thltfuj0a84MJjKDmlP20CcPHc6SaEwyXR6j+5OCzEEgxLBbf/6aRqLutu0YAJoSACGlNLRqpzmqUO6btFmKFI+5EjAPUyt5aVvfiwAbcQT5ns4thOWFQpAP1srEpCZ/txpIMuzorBsKo/8tGd5k/T3qN3/BZ4cQP17vNmisv8uVzYHIM1F5SI7v9sUi9rLR+3x5ReUnVpKqUXxMnvtrfhU0owntD9IPvMAuMJfcZEB9B2dr96h5I0eOUKYaa4F3OqUFRmhgrJxlxs55g5ZHLLXry80Anhxe2wnL7WToRkiqaa9W25h9RcpSgSf+0U0lMagDey4tik1oaSyg6shBfKVL3gakYXlKJm2mUDNrUBFnfLq89/ZgiEwQN6jtBpAIoiyJqKybdr/axKyh1x/Sa+UBvrv9eaKiOlFbBlle2z/LVUpW3l+ryuSebNfo1ymORREWflb+erzmARgeSoefNIn8Pwp4DLd7I4AeXa3F/iN/GtH1NjZ9ZUiMJmrJvltLs4iCBXcVolQ/6PolnEYz9iO71EU8OJDDxtVME5AYg0Q2rlk1vYMiGYSxj/3uxfjVSmb09JAzGtDVRT9YVNe5TZUEYKJmG1wd/1eIImdSmj7n9mv5OjZlMm7v9E44s638doAWf7SKVn/8b7Dm6U7RPCxty1cxvn+R5QTO59TIpHit3arW6clmjNBGLBo/zz22T4eQZOOnnd87nkrEg98A3/XfVxGeCN2S4EvcKa2Xql2f+vyso0dpxtqwJUGMlQL1hxy21WZsEFZmhokhVliEx7fujHIeJJqm0ij2RzrkdxbVEyVZSz1ksnX+eKtJHjoGXRTxqvJluwYiDu4uuDlN7sX0a3URNR39CkEEmiab2EqwTH/35/wiS7J8lOLpDzfT7twCfkcd0/I1qvzbD+vfy5RvpodKO/957pFFdY88DtICKx8lPkQMx5A2U5rl1JR+2zO/1wxCKCj/t1uUexITOaN/l1tleHTaxv6J4eMu7/qt56zo0YOa7bQhuAKLJFrQnrCXoW6EMjytAhknbkzSwEvP/JTiQHIN7CVrqKsuqOFXSs7WeDiS9iwWluowDOUBOClriiGFEkver2Y2HerTnS/vgdSpVwQUfmd5jQSGUTknb/TD4Z9ZECnktCRLb2U8t1s16ANOeBtZz8ieuhiBFdor8tCGW/Mo5tIanbjz+sqAZymC+UyVlh0Uebvl1UlwFn3S9hSt8iy0bc2MRGyX+P/KYBB+fNOc9BH+xsdF4De7Pw4yhs56cBx66jotKvaePzW+6bKURCF5ezUtgxafq9/PKrOhYg3czbak6ZroyVKhgySRXa3GR/d3O1OL71BLbQTwjfxh5suoijfpjk+5e0qRLYpr3ovqnSGImTZ7AnUWpbE2gNCJB7w+f2ET5TJ18+Pmgwdv5WlVO6/vtt/+Y1/I6cR0fpv/JBBLiP1eLPd1irJ8q9tTxKrO/ysvhUZ5eMyFe1/+onng8gCjGZO5uufW3QyRiEuvOJ94ctPAfy8tLv5/272kgXONuLtzHPRyBXp5DqFMujjzGqDF12cVanzzM7H5VNDoGx2+KuxI4lzSZbGAkytf1rN4JqYJEqIPGQvnh3XnLqe/Y3T2flCGRhLyvjreXbbUsEVtK64OfFnyFV0z8nL3p7qQ1pJ9y5SaiwyKI5L3VY0dv6NvNAP2Q7ZZJGIbOxTKIjYnbHu9ob/patRBPgm2jblfWoug+h/ApHg/FUySseRy1me/6t9y8aKAhZdfKM2HcrHhe/42zixhD9bQXfXlIrZr/3tXX+iRg7Yk90Bl/F6Or5GsMsnEQIZeT5ULA64nPrPZncZUQyDx58aYoKMwxxwbAOHOglmvVo39JDAcc5aW29z9h4yGQ4ViXV69K93BaFMJw8/gGtD9JHbvMFNUDUmn6aiNljtlBrKIm+tN9skdWoyqt7zTeNlnn/+RnyNIQnq/p7nGBGV/7b/pa9yOJF1+h1Too699EsD+e3OZVZy+OyPOSE1IYio/v2vOIWIgql733voni8AYNWoeIX3V/uPw+jytEfjpqKlm71tWalGDiadmGuLSwhkteKutw1ImaZPJUupnN3lEYwYw1xnapl1F4YQj1Q0f0YJ0PAnHLYsBM691XbEDdQTYycGq/1/OzhgQEvuTw1FdOXFE/KcxJgVhcrpQeOBmiqfaqe/HUpF9drvi3i5P/+pRZEALb+WZyJmOrv+27eyonEBM44wua4rCz+lZSbB/W/SvK9BE6uEo/AJ/0m+5Qi2uve+xSIJwJSPDXifeY27M7Wl27T8Qd9HW8oygVOH/oeymfXzepPJGjoEenQGD5cg1WzohzzEnNrOxzPlPmIwS8v1fxYrY2Adcg3kXEsd4oDCJNDHtVIwyvYfOgJCQGolB2hfRLfeAgX0fF9qqEVojUaQ+vd8w3sTozJnLqN7nxyIP4P10w5DFvEL9nmp/9zW2LXKNrAtzFTOtLE+sTdZqy2i73PHcaKOhSVbuXRy3aux7a0EifNzzOmhaINcwcIXmC1YWUn5YfcYcgZgKtdi1bvDJ9PNHtqya/NtzGqDG9lMZWP+FnqmKPAtz73eOr3BrKFD8Fz3y7MBk7lW7HsxtlQRpLk2R0HkAzMV8oDl/vZzLldVTrsFtVWmpbarkYrWI44TAItlkH6AWZuBXLZJdnrsxTn6+9DYjim11NKFlTKtvteD97NiIJuFKVU3PZSYM5BDOj8FXAMw7ef/2E5XUZtsp/9JSnmRjfxzn2uPjaDa9HNPsxAFD+bMtO5jqSuS7Ozj+0BTZCmYqOGLfJl/ablWWLpwKAjARK2Bufsf/sT8+Ht2vo3UY4NUdnazt0Or1dDBnny+gcVAGFOt7L0uqgIyUgPklvKQF+re/qfQXxWImou82TMdR4M7NUnmgUA28IW2BSjLUpI/dOzrOXh2GwfXAAeXSNnyu9z4gBwRY5FSVt2iIFY5+wLboQjBJDLd99t8Nru6bBybjv9eUspKWXbUX+E2R1rVeMUlrW2i99h9tpC2fzGRaPk299thFVWnL7NipUpGixsFBGCSAelr0a/xnh9OkY8svhOAVU7dN0VvEzR4g+fqRQ2gbl4j8Me2z5DVHaKisjTPyfTgP2MMmeQagZQvXcjaKCpEYqWB62+pKFVGXaYnfj5HZ62lWBjhGEJhBCO61QuuzIg5HXKJuvdIqVolXdqL2jKJtce/la9iusCO54hf3nUsUJqhbFOeQq+8BlG17vrDpneqwkteu+61mqSf8sCntlCFhT7Kv/rjDKVeaAswVdbEQ1/Sa5nrNOGRke9jfwCXCHXfVl6dUGPGkgGFxYuXLQEFpa4V/Az2LSSngEypcD52+GPqYSyKS0KRt6mtDIi8GYxLZPwDWAmxxna7UwAZNKPIQj0AJ17cThx68TT7Er4FZwRXd5gytHxk7z1uj4lbKYDy2dOTBdWRdQjttoWJUXFhMf+TuDDX1fUYzxyqy46/bptxtZDwRjy0ndk9jj2GRojT05/E/PVrI93TWC4nz2Lj2bh+bXnS1P0CHkptcBRw2OVCMz0hSiUT2VmnVnifH+1XAzif6NEPkKIyCA54R/XArDGTIQFmIF08+b/s5t0lKaqRdW0upGUhH5ykSh9xbvva8grOuwakF8/lmlTOvTAoM6VztiynpQTIWZHOauSUX6os12F1YBGW7LDXt7supbj9aJp3Q/ogHRfKSXSm/mwrjzxq700xKC7lOTDX1lPT3xFVOmSHisVzlzPiVVBcZYf2+jnucE37EseFAypj5Hzge7GUheUH/IGOecDeI7Li0L4/ZL5wfKbmmIjqzjEPIPE65of51QaqTbn1SXsDGDKqzTq1gu/6vbJdAsCIB3skKmZ8EW+NDlcjpptLlLd/2690Ri3/1018vPtR83Di3yVVGJisQpwiKm5m37kpVTrXmEyEHGbaeosyrf9XkA5IQna/kz6FGZuovLK1sJMfmSlxpdb4h3NtlszfZ0XhiTydpfbxYU5tCJbzNNuYTfkJbcYBp4yAiF0TBxwgc1alm0C1ahVFIDPxP2BEtcBh0b67XE0f1196UVs5xlgK+x8xzsTKs3PanpvpyMNF7NnuQ4az6fgQhbPZm66J5DHxXHsXzSqmlt5j5VsVlUw8Yi46VNt60CPPk2c9qPUb/+BtvEShq6KS/F/+cXZvyPTf74BQQb7Z+XV+Rvd4NP1ctlfNCIVniAGqHZxpWQWdj0BFk9TBsbkaoOzvdL2h002CHndL/aaJKjs3zqhXE9Iea19L3+6yRau+96EifHkz+dD/WisfRmvW7L6ym2cgarrf15cC8ltYVYGprUe61Ng4FMWyk1asW7a1xovA8f/LNWMPbQ+t3/tpP8G8P5Oo4e0/ZQO89SKy1lCHes7/RGu0CngHk28MpYf/OO9oquK/tCu1LxZReWCGKkD/GvHachtR1inGyjO2BU4OiIo2EuWN6GNsGbGt0yAqGln8eP3f+L/xf+P/xv+N/xv/N/5v/N/4v/F/4//G/43/G/83/m/83/i/8X/j/8b/jf8b/zf+b/zf+L/xf+P/xv+N/xv/N/5v/N/4v/F/4//G/z8ecwIA;" vertex="1" parent="1">
          <mxGeometry x="320" y="466.67" width="75" height="50" as="geometry" />
        </mxCell>
      </root>
    </mxGraphModel>
  </diagram>
</mxfile>
